<svg width="1363" height="301" viewBox="0 0 1363 301" fill="none" xmlns="http://www.w3.org/2000/svg">
<rect width="1363" height="301" rx="15" fill="#F0F0F0"/>
<path d="M0 15C0 6.71573 6.71573 0 15 0H37V301H15C6.71573 301 0 294.284 0 286V15Z" fill="#FE9738"/>
<path d="M110.933 127.376H100.862L100.809 121.2H108.973C110.441 121.2 111.613 121.039 112.491 120.716C113.368 120.376 114.004 119.884 114.397 119.239C114.809 118.595 115.015 117.789 115.015 116.822C115.015 115.712 114.809 114.817 114.397 114.137C113.986 113.456 113.332 112.964 112.437 112.66C111.56 112.337 110.423 112.176 109.026 112.176H104.407V144H94.981V104.898H109.026C111.443 104.898 113.601 105.122 115.499 105.57C117.396 106 119.008 106.662 120.333 107.557C121.675 108.452 122.696 109.58 123.394 110.941C124.092 112.284 124.441 113.868 124.441 115.694C124.441 117.288 124.101 118.783 123.421 120.179C122.741 121.576 121.604 122.713 120.01 123.59C118.435 124.449 116.277 124.897 113.538 124.933L110.933 127.376ZM110.557 144H98.5796L101.802 136.749H110.557C111.846 136.749 112.876 136.552 113.646 136.158C114.433 135.746 114.997 135.209 115.337 134.547C115.695 133.867 115.875 133.115 115.875 132.291C115.875 131.288 115.704 130.42 115.364 129.686C115.042 128.952 114.523 128.388 113.807 127.994C113.09 127.582 112.133 127.376 110.933 127.376H103.011L103.064 121.2H112.544L114.747 123.67C117.361 123.563 119.428 123.93 120.95 124.771C122.49 125.613 123.591 126.723 124.253 128.102C124.916 129.48 125.247 130.921 125.247 132.425C125.247 134.986 124.692 137.125 123.582 138.844C122.49 140.562 120.852 141.852 118.667 142.711C116.483 143.57 113.78 144 110.557 144ZM145.147 136.695V124.718C145.147 123.894 145.031 123.187 144.798 122.596C144.565 122.005 144.198 121.549 143.697 121.227C143.195 120.886 142.524 120.716 141.683 120.716C141.002 120.716 140.42 120.833 139.937 121.065C139.454 121.298 139.087 121.647 138.836 122.113C138.585 122.578 138.46 123.169 138.46 123.885H129.41C129.41 122.542 129.705 121.298 130.296 120.152C130.905 118.989 131.764 117.977 132.874 117.118C134.002 116.258 135.345 115.596 136.902 115.13C138.478 114.647 140.232 114.405 142.166 114.405C144.476 114.405 146.535 114.79 148.343 115.56C150.169 116.33 151.61 117.485 152.667 119.024C153.723 120.546 154.251 122.462 154.251 124.771V136.668C154.251 138.566 154.358 140.007 154.573 140.992C154.788 141.959 155.092 142.809 155.486 143.543V144H146.409C145.979 143.105 145.657 142.013 145.442 140.724C145.245 139.417 145.147 138.074 145.147 136.695ZM146.248 126.249L146.302 131.083H142.3C141.459 131.083 140.743 131.199 140.152 131.432C139.579 131.664 139.113 131.987 138.755 132.398C138.415 132.792 138.165 133.24 138.003 133.741C137.86 134.243 137.789 134.771 137.789 135.326C137.789 135.863 137.914 136.346 138.165 136.776C138.433 137.188 138.791 137.51 139.239 137.743C139.686 137.975 140.188 138.092 140.743 138.092C141.745 138.092 142.596 137.904 143.294 137.528C144.01 137.134 144.556 136.66 144.932 136.104C145.308 135.549 145.496 135.03 145.496 134.547L147.483 138.253C147.125 138.969 146.714 139.694 146.248 140.428C145.8 141.162 145.236 141.843 144.556 142.469C143.894 143.078 143.079 143.579 142.112 143.973C141.146 144.349 139.973 144.537 138.594 144.537C136.804 144.537 135.157 144.17 133.653 143.436C132.167 142.702 130.976 141.681 130.081 140.375C129.186 139.05 128.738 137.528 128.738 135.809C128.738 134.305 129.007 132.962 129.544 131.781C130.099 130.599 130.931 129.597 132.042 128.773C133.152 127.949 134.566 127.323 136.285 126.893C138.003 126.463 140.027 126.249 142.354 126.249H146.248ZM168.162 121.146V144H159.112V114.942H167.598L168.162 121.146ZM167.088 128.478L164.966 128.531C164.966 126.311 165.235 124.333 165.772 122.596C166.309 120.842 167.07 119.356 168.055 118.138C169.039 116.921 170.212 115.999 171.573 115.372C172.951 114.728 174.482 114.405 176.165 114.405C177.508 114.405 178.734 114.602 179.844 114.996C180.972 115.39 181.939 116.026 182.745 116.903C183.568 117.78 184.195 118.944 184.625 120.394C185.072 121.826 185.296 123.599 185.296 125.711V144H176.192V125.685C176.192 124.521 176.031 123.635 175.708 123.026C175.386 122.399 174.921 121.97 174.312 121.737C173.703 121.504 172.96 121.388 172.083 121.388C171.152 121.388 170.364 121.567 169.72 121.925C169.075 122.283 168.556 122.784 168.162 123.429C167.786 124.055 167.509 124.798 167.33 125.658C167.168 126.517 167.088 127.457 167.088 128.478ZM207.022 137.34V102.75H216.126V144H207.962L207.022 137.34ZM189.19 129.82V129.256C189.19 127.054 189.432 125.049 189.915 123.241C190.398 121.415 191.115 119.848 192.063 118.541C193.012 117.216 194.194 116.196 195.608 115.479C197.023 114.763 198.652 114.405 200.496 114.405C202.143 114.405 203.584 114.79 204.82 115.56C206.055 116.312 207.111 117.368 207.989 118.729C208.866 120.09 209.582 121.683 210.137 123.509C210.692 125.318 211.113 127.269 211.399 129.364V130.035C211.113 132.005 210.692 133.867 210.137 135.621C209.582 137.358 208.866 138.897 207.989 140.24C207.111 141.583 206.046 142.639 204.793 143.409C203.558 144.161 202.107 144.537 200.442 144.537C198.598 144.537 196.969 144.17 195.555 143.436C194.158 142.702 192.986 141.673 192.037 140.348C191.106 139.023 190.398 137.465 189.915 135.675C189.432 133.884 189.19 131.933 189.19 129.82ZM198.24 129.256V129.82C198.24 130.912 198.312 131.924 198.455 132.855C198.598 133.786 198.84 134.61 199.18 135.326C199.538 136.024 200.004 136.57 200.577 136.964C201.167 137.358 201.893 137.555 202.752 137.555C203.916 137.555 204.874 137.277 205.625 136.722C206.395 136.167 206.959 135.379 207.317 134.359C207.693 133.338 207.854 132.139 207.801 130.76V128.639C207.837 127.457 207.756 126.419 207.559 125.523C207.362 124.61 207.049 123.849 206.619 123.241C206.207 122.632 205.679 122.175 205.035 121.871C204.408 121.549 203.665 121.388 202.806 121.388C201.964 121.388 201.248 121.585 200.657 121.979C200.084 122.372 199.619 122.927 199.261 123.644C198.903 124.342 198.643 125.174 198.482 126.141C198.321 127.09 198.24 128.128 198.24 129.256ZM256.597 104.898H266.023V130.438C266.023 133.482 265.388 136.06 264.117 138.172C262.846 140.267 261.064 141.852 258.772 142.926C256.481 144 253.786 144.537 250.689 144.537C247.627 144.537 244.933 144 242.605 142.926C240.296 141.852 238.488 140.267 237.181 138.172C235.892 136.06 235.247 133.482 235.247 130.438V104.898H244.7V130.438C244.7 132.049 244.933 133.365 245.398 134.386C245.864 135.388 246.544 136.122 247.439 136.588C248.335 137.053 249.418 137.286 250.689 137.286C251.978 137.286 253.061 137.053 253.938 136.588C254.816 136.122 255.478 135.388 255.926 134.386C256.373 133.365 256.597 132.049 256.597 130.438V104.898ZM280.66 120.528V155.172H271.609V114.942H280.042L280.66 120.528ZM298.492 129.122V129.686C298.492 131.799 298.25 133.759 297.767 135.567C297.283 137.376 296.567 138.951 295.618 140.294C294.669 141.637 293.488 142.684 292.073 143.436C290.677 144.17 289.056 144.537 287.212 144.537C285.476 144.537 283.981 144.152 282.728 143.382C281.474 142.612 280.427 141.547 279.585 140.187C278.744 138.826 278.064 137.268 277.544 135.514C277.025 133.759 276.613 131.906 276.309 129.955V129.229C276.613 127.135 277.025 125.192 277.544 123.402C278.064 121.594 278.744 120.018 279.585 118.675C280.427 117.333 281.465 116.285 282.701 115.533C283.954 114.781 285.449 114.405 287.186 114.405C289.03 114.405 290.65 114.754 292.046 115.453C293.461 116.151 294.642 117.153 295.591 118.46C296.558 119.75 297.283 121.298 297.767 123.106C298.25 124.915 298.492 126.92 298.492 129.122ZM289.441 129.686V129.122C289.441 127.994 289.361 126.965 289.2 126.034C289.039 125.085 288.779 124.261 288.421 123.563C288.081 122.865 287.624 122.328 287.051 121.952C286.478 121.576 285.771 121.388 284.93 121.388C283.963 121.388 283.148 121.54 282.486 121.844C281.841 122.131 281.322 122.578 280.928 123.187C280.552 123.778 280.284 124.521 280.123 125.416C279.979 126.293 279.917 127.323 279.935 128.504V130.707C279.899 132.067 280.033 133.267 280.337 134.305C280.642 135.326 281.17 136.122 281.922 136.695C282.674 137.268 283.694 137.555 284.983 137.555C285.843 137.555 286.559 137.358 287.132 136.964C287.705 136.552 288.161 135.988 288.501 135.272C288.842 134.538 289.083 133.696 289.227 132.748C289.37 131.799 289.441 130.778 289.441 129.686Z" fill="black"/>
<path d="M96.563 55.1172H100.904L107.295 73.3862L113.687 55.1172H118.028L109.039 80H105.552L96.563 55.1172ZM94.2217 55.1172H98.5454L99.3315 72.9248V80H94.2217V55.1172ZM116.045 55.1172H120.386V80H115.259V72.9248L116.045 55.1172ZM129.769 61.5088V80H124.83V61.5088H129.769ZM124.522 56.6895C124.522 55.9717 124.773 55.3792 125.274 54.9121C125.775 54.445 126.447 54.2114 127.291 54.2114C128.122 54.2114 128.789 54.445 129.29 54.9121C129.803 55.3792 130.059 55.9717 130.059 56.6895C130.059 57.4072 129.803 57.9997 129.29 58.4668C128.789 58.9339 128.122 59.1675 127.291 59.1675C126.447 59.1675 125.775 58.9339 125.274 58.4668C124.773 57.9997 124.522 57.4072 124.522 56.6895ZM141.475 76.4966C142.079 76.4966 142.614 76.3826 143.082 76.1548C143.549 75.9155 143.913 75.5851 144.175 75.1636C144.449 74.7306 144.591 74.2236 144.603 73.6426H149.234C149.222 74.9414 148.875 76.0978 148.191 77.1118C147.508 78.1144 146.591 78.9062 145.44 79.4873C144.289 80.057 143.002 80.3418 141.578 80.3418C140.142 80.3418 138.889 80.1025 137.818 79.624C136.758 79.1455 135.875 78.4847 135.169 77.6416C134.463 76.7871 133.933 75.7959 133.58 74.668C133.226 73.5286 133.05 72.3096 133.05 71.0107V70.5151C133.05 69.2049 133.226 67.9858 133.58 66.8579C133.933 65.7186 134.463 64.7274 135.169 63.8843C135.875 63.0298 136.758 62.3633 137.818 61.8848C138.877 61.4062 140.119 61.167 141.543 61.167C143.059 61.167 144.386 61.4575 145.525 62.0386C146.676 62.6196 147.576 63.4513 148.226 64.5337C148.886 65.6047 149.222 66.875 149.234 68.3447H144.603C144.591 67.7295 144.46 67.1712 144.209 66.6699C143.97 66.1686 143.617 65.7699 143.15 65.4736C142.694 65.166 142.13 65.0122 141.458 65.0122C140.74 65.0122 140.153 65.166 139.698 65.4736C139.242 65.7699 138.889 66.18 138.638 66.7041C138.388 67.2168 138.211 67.8035 138.108 68.4644C138.017 69.1138 137.972 69.7974 137.972 70.5151V71.0107C137.972 71.7285 138.017 72.4178 138.108 73.0786C138.2 73.7394 138.37 74.3262 138.621 74.8389C138.883 75.3516 139.242 75.756 139.698 76.0522C140.153 76.3485 140.746 76.4966 141.475 76.4966ZM156.89 53.75V80H151.968V53.75H156.89ZM156.189 70.105H154.839C154.851 68.8175 155.022 67.6326 155.352 66.5503C155.682 65.4565 156.155 64.5109 156.771 63.7134C157.386 62.9045 158.121 62.2778 158.975 61.8335C159.841 61.3892 160.798 61.167 161.846 61.167C162.758 61.167 163.584 61.298 164.324 61.5601C165.076 61.8107 165.72 62.2209 166.255 62.7905C166.802 63.3488 167.224 64.0837 167.52 64.9951C167.816 65.9066 167.964 67.0117 167.964 68.3105V80H163.008V68.2764C163.008 67.4561 162.889 66.8123 162.649 66.3452C162.422 65.8667 162.085 65.5306 161.641 65.3369C161.208 65.1318 160.673 65.0293 160.035 65.0293C159.328 65.0293 158.724 65.1603 158.223 65.4224C157.733 65.6844 157.34 66.049 157.044 66.5161C156.748 66.9718 156.531 67.5073 156.395 68.1226C156.258 68.7378 156.189 69.3986 156.189 70.105ZM180.218 80.3418C178.782 80.3418 177.495 80.1139 176.355 79.6582C175.216 79.1911 174.248 78.5474 173.45 77.7271C172.664 76.9067 172.06 75.9554 171.639 74.873C171.217 73.7793 171.006 72.6172 171.006 71.3867V70.7031C171.006 69.3018 171.206 68.02 171.604 66.8579C172.003 65.6958 172.573 64.6875 173.313 63.833C174.065 62.9785 174.977 62.3234 176.048 61.8677C177.119 61.4006 178.326 61.167 179.671 61.167C180.981 61.167 182.143 61.3835 183.157 61.8164C184.171 62.2493 185.02 62.8646 185.704 63.6621C186.399 64.4596 186.923 65.4167 187.276 66.5332C187.629 67.6383 187.806 68.8688 187.806 70.2246V72.2754H173.108V68.9941H182.969V68.6182C182.969 67.9346 182.844 67.325 182.593 66.7896C182.354 66.2427 181.989 65.8097 181.5 65.4907C181.01 65.1717 180.383 65.0122 179.62 65.0122C178.97 65.0122 178.412 65.1546 177.945 65.4395C177.478 65.7243 177.096 66.123 176.8 66.6357C176.515 67.1484 176.299 67.7523 176.15 68.4473C176.014 69.1309 175.945 69.8828 175.945 70.7031V71.3867C175.945 72.1273 176.048 72.8109 176.253 73.4375C176.469 74.0641 176.771 74.6053 177.159 75.061C177.557 75.5168 178.036 75.87 178.594 76.1206C179.164 76.3713 179.808 76.4966 180.525 76.4966C181.414 76.4966 182.24 76.3257 183.003 75.9839C183.778 75.6307 184.445 75.1009 185.003 74.3945L187.396 76.9922C187.008 77.5505 186.478 78.0859 185.806 78.5986C185.145 79.1113 184.348 79.5329 183.414 79.8633C182.479 80.1823 181.414 80.3418 180.218 80.3418ZM195.804 53.75V80H190.865V53.75H195.804ZM225.489 65.2515V69.2505H212.5V65.2515H225.489ZM214.021 55.1172V80H208.895V55.1172H214.021ZM229.146 55.1172V80H224.036V55.1172H229.146ZM243.279 75.8301V67.5928C243.279 67.0003 243.182 66.4933 242.989 66.0718C242.795 65.6388 242.493 65.3027 242.083 65.0635C241.684 64.8242 241.166 64.7046 240.528 64.7046C239.981 64.7046 239.508 64.8014 239.109 64.9951C238.711 65.1774 238.403 65.4451 238.187 65.7983C237.97 66.1401 237.862 66.5446 237.862 67.0117H232.94C232.94 66.2256 233.122 65.4793 233.487 64.7729C233.851 64.0666 234.381 63.4456 235.076 62.9102C235.771 62.3633 236.597 61.936 237.554 61.6284C238.523 61.3208 239.605 61.167 240.801 61.167C242.237 61.167 243.513 61.4062 244.629 61.8848C245.746 62.3633 246.623 63.0811 247.261 64.0381C247.911 64.9951 248.235 66.1914 248.235 67.627V75.5396C248.235 76.5535 248.298 77.3853 248.423 78.0347C248.549 78.6727 248.731 79.231 248.97 79.7095V80H243.997C243.758 79.4987 243.576 78.8721 243.45 78.1201C243.336 77.3568 243.279 76.5934 243.279 75.8301ZM243.929 68.7378L243.963 71.5234H241.211C240.562 71.5234 239.998 71.5975 239.52 71.7456C239.041 71.8937 238.648 72.1045 238.34 72.3779C238.033 72.64 237.805 72.9476 237.657 73.3008C237.52 73.654 237.452 74.0413 237.452 74.4629C237.452 74.8844 237.549 75.2661 237.742 75.6079C237.936 75.9383 238.215 76.2004 238.58 76.394C238.944 76.5763 239.371 76.6675 239.861 76.6675C240.602 76.6675 241.246 76.5194 241.792 76.2231C242.339 75.9269 242.761 75.5623 243.057 75.1294C243.365 74.6965 243.524 74.2863 243.536 73.8989L244.834 75.9839C244.652 76.451 244.402 76.9352 244.083 77.4365C243.775 77.9378 243.382 78.4106 242.903 78.855C242.425 79.2879 241.849 79.6468 241.177 79.9316C240.505 80.2051 239.708 80.3418 238.785 80.3418C237.611 80.3418 236.546 80.1082 235.589 79.6411C234.643 79.1626 233.891 78.5075 233.333 77.6758C232.786 76.8327 232.513 75.8757 232.513 74.8047C232.513 73.8363 232.695 72.9761 233.06 72.2241C233.424 71.4722 233.96 70.8398 234.666 70.3271C235.384 69.8031 236.278 69.41 237.349 69.1479C238.42 68.8745 239.662 68.7378 241.075 68.7378H243.929ZM262.95 75.9668V53.75H267.906V80H263.445L262.95 75.9668ZM251.26 70.9766V70.6177C251.26 69.2049 251.42 67.9232 251.739 66.7725C252.058 65.6104 252.525 64.6134 253.14 63.7817C253.755 62.95 254.513 62.3063 255.413 61.8506C256.313 61.3949 257.339 61.167 258.489 61.167C259.572 61.167 260.517 61.3949 261.326 61.8506C262.146 62.3063 262.841 62.9557 263.411 63.7988C263.992 64.6305 264.459 65.616 264.812 66.7554C265.166 67.8833 265.422 69.1195 265.582 70.4639V71.25C265.422 72.5374 265.166 73.7337 264.812 74.8389C264.459 75.944 263.992 76.9124 263.411 77.7441C262.841 78.5645 262.146 79.2025 261.326 79.6582C260.506 80.1139 259.549 80.3418 258.455 80.3418C257.304 80.3418 256.279 80.1082 255.379 79.6411C254.49 79.174 253.738 78.5189 253.123 77.6758C252.519 76.8327 252.058 75.8415 251.739 74.7021C251.42 73.5628 251.26 72.321 251.26 70.9766ZM256.182 70.6177V70.9766C256.182 71.7399 256.239 72.452 256.353 73.1128C256.478 73.7736 256.678 74.3604 256.951 74.873C257.236 75.3743 257.601 75.7674 258.045 76.0522C258.501 76.3257 259.053 76.4624 259.703 76.4624C260.546 76.4624 261.241 76.2744 261.788 75.8984C262.334 75.5111 262.75 74.9813 263.035 74.3091C263.331 73.6369 263.502 72.8621 263.548 71.9849V69.7461C263.514 69.0283 263.411 68.3846 263.24 67.8149C263.081 67.2339 262.841 66.7383 262.522 66.3281C262.215 65.918 261.827 65.599 261.36 65.3711C260.905 65.1432 260.363 65.0293 259.737 65.0293C259.099 65.0293 258.552 65.1774 258.096 65.4736C257.64 65.7585 257.27 66.1515 256.985 66.6528C256.712 67.1541 256.507 67.7466 256.37 68.4302C256.245 69.1024 256.182 69.8315 256.182 70.6177ZM282.671 75.9668V53.75H287.627V80H283.167L282.671 75.9668ZM270.982 70.9766V70.6177C270.982 69.2049 271.141 67.9232 271.46 66.7725C271.779 65.6104 272.247 64.6134 272.862 63.7817C273.477 62.95 274.235 62.3063 275.135 61.8506C276.035 61.3949 277.06 61.167 278.211 61.167C279.293 61.167 280.239 61.3949 281.048 61.8506C281.868 62.3063 282.563 62.9557 283.133 63.7988C283.714 64.6305 284.181 65.616 284.534 66.7554C284.887 67.8833 285.144 69.1195 285.303 70.4639V71.25C285.144 72.5374 284.887 73.7337 284.534 74.8389C284.181 75.944 283.714 76.9124 283.133 77.7441C282.563 78.5645 281.868 79.2025 281.048 79.6582C280.228 80.1139 279.271 80.3418 278.177 80.3418C277.026 80.3418 276.001 80.1082 275.101 79.6411C274.212 79.174 273.46 78.5189 272.845 77.6758C272.241 76.8327 271.779 75.8415 271.46 74.7021C271.141 73.5628 270.982 72.321 270.982 70.9766ZM275.904 70.6177V70.9766C275.904 71.7399 275.961 72.452 276.075 73.1128C276.2 73.7736 276.399 74.3604 276.673 74.873C276.958 75.3743 277.322 75.7674 277.767 76.0522C278.222 76.3257 278.775 76.4624 279.424 76.4624C280.267 76.4624 280.962 76.2744 281.509 75.8984C282.056 75.5111 282.472 74.9813 282.757 74.3091C283.053 73.6369 283.224 72.8621 283.27 71.9849V69.7461C283.235 69.0283 283.133 68.3846 282.962 67.8149C282.802 67.2339 282.563 66.7383 282.244 66.3281C281.937 65.918 281.549 65.599 281.082 65.3711C280.626 65.1432 280.085 65.0293 279.458 65.0293C278.82 65.0293 278.274 65.1774 277.818 65.4736C277.362 65.7585 276.992 66.1515 276.707 66.6528C276.434 67.1541 276.229 67.7466 276.092 68.4302C275.966 69.1024 275.904 69.8315 275.904 70.6177ZM301.453 75.8301V67.5928C301.453 67.0003 301.356 66.4933 301.163 66.0718C300.969 65.6388 300.667 65.3027 300.257 65.0635C299.858 64.8242 299.34 64.7046 298.702 64.7046C298.155 64.7046 297.682 64.8014 297.283 64.9951C296.884 65.1774 296.577 65.4451 296.36 65.7983C296.144 66.1401 296.036 66.5446 296.036 67.0117H291.114C291.114 66.2256 291.296 65.4793 291.661 64.7729C292.025 64.0666 292.555 63.4456 293.25 62.9102C293.945 62.3633 294.771 61.936 295.728 61.6284C296.696 61.3208 297.779 61.167 298.975 61.167C300.411 61.167 301.687 61.4062 302.803 61.8848C303.92 62.3633 304.797 63.0811 305.435 64.0381C306.084 64.9951 306.409 66.1914 306.409 67.627V75.5396C306.409 76.5535 306.472 77.3853 306.597 78.0347C306.722 78.6727 306.905 79.231 307.144 79.7095V80H302.171C301.932 79.4987 301.749 78.8721 301.624 78.1201C301.51 77.3568 301.453 76.5934 301.453 75.8301ZM302.103 68.7378L302.137 71.5234H299.385C298.736 71.5234 298.172 71.5975 297.693 71.7456C297.215 71.8937 296.822 72.1045 296.514 72.3779C296.207 72.64 295.979 72.9476 295.831 73.3008C295.694 73.654 295.625 74.0413 295.625 74.4629C295.625 74.8844 295.722 75.2661 295.916 75.6079C296.11 75.9383 296.389 76.2004 296.753 76.394C297.118 76.5763 297.545 76.6675 298.035 76.6675C298.776 76.6675 299.419 76.5194 299.966 76.2231C300.513 75.9269 300.935 75.5623 301.231 75.1294C301.539 74.6965 301.698 74.2863 301.709 73.8989L303.008 75.9839C302.826 76.451 302.575 76.9352 302.256 77.4365C301.949 77.9378 301.556 78.4106 301.077 78.855C300.599 79.2879 300.023 79.6468 299.351 79.9316C298.679 80.2051 297.881 80.3418 296.958 80.3418C295.785 80.3418 294.72 80.1082 293.763 79.6411C292.817 79.1626 292.065 78.5075 291.507 77.6758C290.96 76.8327 290.687 75.8757 290.687 74.8047C290.687 73.8363 290.869 72.9761 291.233 72.2241C291.598 71.4722 292.133 70.8398 292.84 70.3271C293.558 69.8031 294.452 69.41 295.523 69.1479C296.594 68.8745 297.836 68.7378 299.249 68.7378H302.103ZM321.124 75.9668V53.75H326.08V80H321.619L321.124 75.9668ZM309.434 70.9766V70.6177C309.434 69.2049 309.594 67.9232 309.913 66.7725C310.232 65.6104 310.699 64.6134 311.314 63.7817C311.929 62.95 312.687 62.3063 313.587 61.8506C314.487 61.3949 315.512 61.167 316.663 61.167C317.745 61.167 318.691 61.3949 319.5 61.8506C320.32 62.3063 321.015 62.9557 321.585 63.7988C322.166 64.6305 322.633 65.616 322.986 66.7554C323.34 67.8833 323.596 69.1195 323.755 70.4639V71.25C323.596 72.5374 323.34 73.7337 322.986 74.8389C322.633 75.944 322.166 76.9124 321.585 77.7441C321.015 78.5645 320.32 79.2025 319.5 79.6582C318.68 80.1139 317.723 80.3418 316.629 80.3418C315.478 80.3418 314.453 80.1082 313.553 79.6411C312.664 79.174 311.912 78.5189 311.297 77.6758C310.693 76.8327 310.232 75.8415 309.913 74.7021C309.594 73.5628 309.434 72.321 309.434 70.9766ZM314.356 70.6177V70.9766C314.356 71.7399 314.413 72.452 314.527 73.1128C314.652 73.7736 314.852 74.3604 315.125 74.873C315.41 75.3743 315.774 75.7674 316.219 76.0522C316.674 76.3257 317.227 76.4624 317.876 76.4624C318.72 76.4624 319.415 76.2744 319.961 75.8984C320.508 75.5111 320.924 74.9813 321.209 74.3091C321.505 73.6369 321.676 72.8621 321.722 71.9849V69.7461C321.688 69.0283 321.585 68.3846 321.414 67.8149C321.255 67.2339 321.015 66.7383 320.696 66.3281C320.389 65.918 320.001 65.599 319.534 65.3711C319.078 65.1432 318.537 65.0293 317.911 65.0293C317.273 65.0293 316.726 65.1774 316.27 65.4736C315.814 65.7585 315.444 66.1515 315.159 66.6528C314.886 67.1541 314.681 67.7466 314.544 68.4302C314.419 69.1024 314.356 69.8315 314.356 70.6177Z" fill="#888888"/>
<rect x="92" y="181" width="1179" height="80" rx="13.3333" fill="#CCCCCC"/>
<rect x="107" y="196.334" width="208" height="49.3333" rx="4.66667" fill="#888888" stroke="#888888" stroke-width="4"/>
<path d="M166.656 213.167H169.635L173.021 223.72L176.406 213.167H179.385L174.229 228.334H171.813L166.656 213.167ZM164.844 213.167H167.927L168.5 224.792V228.334H164.844V213.167ZM178.115 213.167H181.208V228.334H177.542V224.792L178.115 213.167ZM182.948 222.813V222.595C182.948 221.768 183.066 221.008 183.302 220.313C183.538 219.612 183.885 219.004 184.344 218.49C184.802 217.976 185.368 217.577 186.042 217.292C186.715 217.001 187.493 216.855 188.375 216.855C189.264 216.855 190.045 217.001 190.719 217.292C191.399 217.577 191.969 217.976 192.427 218.49C192.885 219.004 193.233 219.612 193.469 220.313C193.705 221.008 193.823 221.768 193.823 222.595V222.813C193.823 223.633 193.705 224.393 193.469 225.095C193.233 225.789 192.885 226.397 192.427 226.917C191.969 227.431 191.403 227.831 190.729 228.115C190.056 228.4 189.278 228.542 188.396 228.542C187.514 228.542 186.733 228.4 186.052 228.115C185.372 227.831 184.802 227.431 184.344 226.917C183.885 226.397 183.538 225.789 183.302 225.095C183.066 224.393 182.948 223.633 182.948 222.813ZM186.458 222.595V222.813C186.458 223.237 186.49 223.633 186.552 224.001C186.615 224.369 186.719 224.692 186.865 224.97C187.01 225.24 187.208 225.452 187.458 225.605C187.708 225.758 188.021 225.834 188.396 225.834C188.764 225.834 189.069 225.758 189.313 225.605C189.563 225.452 189.76 225.24 189.906 224.97C190.052 224.692 190.156 224.369 190.219 224.001C190.281 223.633 190.313 223.237 190.313 222.813V222.595C190.313 222.185 190.281 221.799 190.219 221.438C190.156 221.07 190.052 220.747 189.906 220.47C189.76 220.185 189.563 219.963 189.313 219.803C189.063 219.643 188.75 219.563 188.375 219.563C188.007 219.563 187.698 219.643 187.448 219.803C187.205 219.963 187.01 220.185 186.865 220.47C186.719 220.747 186.615 221.07 186.552 221.438C186.49 221.799 186.458 222.185 186.458 222.595ZM198.833 219.47V228.334H195.323V217.063H198.615L198.833 219.47ZM198.417 222.313L197.594 222.334C197.594 221.473 197.698 220.706 197.906 220.032C198.115 219.351 198.41 218.775 198.792 218.303C199.174 217.831 199.628 217.473 200.156 217.23C200.691 216.98 201.285 216.855 201.938 216.855C202.458 216.855 202.934 216.931 203.365 217.084C203.802 217.237 204.177 217.483 204.49 217.824C204.809 218.164 205.052 218.615 205.219 219.178C205.392 219.733 205.479 220.421 205.479 221.24V228.334H201.948V221.23C201.948 220.779 201.885 220.435 201.76 220.199C201.635 219.956 201.455 219.789 201.219 219.699C200.983 219.608 200.694 219.563 200.354 219.563C199.993 219.563 199.688 219.633 199.438 219.772C199.188 219.91 198.986 220.105 198.833 220.355C198.688 220.598 198.58 220.886 198.51 221.22C198.448 221.553 198.417 221.917 198.417 222.313ZM214.51 217.063H217.698V227.897C217.698 228.938 217.458 229.82 216.979 230.542C216.5 231.272 215.83 231.824 214.969 232.199C214.115 232.581 213.115 232.772 211.969 232.772C211.462 232.772 210.944 232.706 210.417 232.574C209.889 232.449 209.396 232.261 208.938 232.011C208.479 231.761 208.094 231.452 207.781 231.084L209.25 229.022C209.535 229.341 209.892 229.612 210.323 229.834C210.753 230.063 211.26 230.178 211.844 230.178C212.351 230.178 212.774 230.088 213.115 229.907C213.462 229.726 213.726 229.463 213.906 229.115C214.087 228.775 214.177 228.362 214.177 227.876V219.73L214.51 217.063ZM207.021 222.834V222.615C207.021 221.761 207.125 220.983 207.333 220.282C207.549 219.574 207.854 218.966 208.25 218.459C208.653 217.945 209.139 217.549 209.708 217.272C210.278 216.994 210.92 216.855 211.635 216.855C212.406 216.855 213.038 217.004 213.531 217.303C214.031 217.595 214.431 218.004 214.729 218.532C215.035 219.06 215.271 219.678 215.438 220.386C215.611 221.088 215.757 221.845 215.875 222.657V222.917C215.757 223.681 215.594 224.404 215.385 225.084C215.184 225.758 214.92 226.355 214.594 226.876C214.267 227.397 213.858 227.806 213.365 228.105C212.878 228.397 212.295 228.542 211.615 228.542C210.906 228.542 210.267 228.4 209.698 228.115C209.135 227.831 208.653 227.431 208.25 226.917C207.854 226.404 207.549 225.799 207.333 225.105C207.125 224.41 207.021 223.654 207.021 222.834ZM210.531 222.615V222.834C210.531 223.258 210.569 223.65 210.646 224.011C210.729 224.372 210.854 224.692 211.021 224.97C211.188 225.24 211.392 225.452 211.635 225.605C211.885 225.758 212.177 225.834 212.51 225.834C213.017 225.834 213.427 225.726 213.74 225.511C214.052 225.296 214.278 224.99 214.417 224.595C214.556 224.199 214.615 223.733 214.594 223.199V222.376C214.608 221.917 214.576 221.515 214.5 221.167C214.424 220.813 214.302 220.518 214.135 220.282C213.976 220.046 213.76 219.869 213.49 219.751C213.226 219.626 212.906 219.563 212.531 219.563C212.205 219.563 211.917 219.64 211.667 219.792C211.417 219.945 211.208 220.16 211.042 220.438C210.875 220.709 210.747 221.032 210.656 221.407C210.573 221.775 210.531 222.178 210.531 222.615ZM219.281 222.813V222.595C219.281 221.768 219.399 221.008 219.635 220.313C219.872 219.612 220.219 219.004 220.677 218.49C221.135 217.976 221.701 217.577 222.375 217.292C223.049 217.001 223.826 216.855 224.708 216.855C225.597 216.855 226.378 217.001 227.052 217.292C227.733 217.577 228.302 217.976 228.76 218.49C229.219 219.004 229.566 219.612 229.802 220.313C230.038 221.008 230.156 221.768 230.156 222.595V222.813C230.156 223.633 230.038 224.393 229.802 225.095C229.566 225.789 229.219 226.397 228.76 226.917C228.302 227.431 227.736 227.831 227.063 228.115C226.389 228.4 225.611 228.542 224.729 228.542C223.847 228.542 223.066 228.4 222.385 228.115C221.705 227.831 221.135 227.431 220.677 226.917C220.219 226.397 219.872 225.789 219.635 225.095C219.399 224.393 219.281 223.633 219.281 222.813ZM222.792 222.595V222.813C222.792 223.237 222.823 223.633 222.885 224.001C222.948 224.369 223.052 224.692 223.198 224.97C223.344 225.24 223.542 225.452 223.792 225.605C224.042 225.758 224.354 225.834 224.729 225.834C225.097 225.834 225.403 225.758 225.646 225.605C225.896 225.452 226.094 225.24 226.24 224.97C226.385 224.692 226.49 224.369 226.552 224.001C226.615 223.633 226.646 223.237 226.646 222.813V222.595C226.646 222.185 226.615 221.799 226.552 221.438C226.49 221.07 226.385 220.747 226.24 220.47C226.094 220.185 225.896 219.963 225.646 219.803C225.396 219.643 225.083 219.563 224.708 219.563C224.34 219.563 224.031 219.643 223.781 219.803C223.538 219.963 223.344 220.185 223.198 220.47C223.052 220.747 222.948 221.07 222.885 221.438C222.823 221.799 222.792 222.185 222.792 222.595ZM236.813 228.334H233.448L233.469 225.522H236.813C237.507 225.522 238.094 225.355 238.573 225.022C239.059 224.688 239.427 224.192 239.677 223.532C239.934 222.865 240.063 222.046 240.063 221.074V220.417C240.063 219.688 239.99 219.049 239.844 218.501C239.705 217.945 239.497 217.483 239.219 217.115C238.941 216.74 238.594 216.459 238.177 216.272C237.767 216.084 237.295 215.99 236.76 215.99H233.385V213.167H236.76C237.788 213.167 238.729 213.345 239.583 213.699C240.444 214.046 241.188 214.546 241.813 215.199C242.444 215.845 242.931 216.612 243.271 217.501C243.618 218.383 243.792 219.362 243.792 220.438V221.074C243.792 222.143 243.618 223.122 243.271 224.011C242.931 224.9 242.448 225.667 241.823 226.313C241.198 226.959 240.458 227.459 239.604 227.813C238.757 228.16 237.826 228.334 236.813 228.334ZM235.542 213.167V228.334H231.885V213.167H235.542ZM251.885 221.886H247.979L247.958 219.49H251.125C251.694 219.49 252.149 219.428 252.49 219.303C252.83 219.171 253.076 218.98 253.229 218.73C253.389 218.48 253.469 218.167 253.469 217.792C253.469 217.362 253.389 217.015 253.229 216.751C253.069 216.487 252.816 216.296 252.469 216.178C252.128 216.053 251.688 215.99 251.146 215.99H249.354V228.334H245.698V213.167H251.146C252.083 213.167 252.92 213.254 253.656 213.428C254.392 213.595 255.017 213.851 255.531 214.199C256.052 214.546 256.448 214.983 256.719 215.511C256.99 216.032 257.125 216.647 257.125 217.355C257.125 217.973 256.993 218.553 256.729 219.095C256.465 219.636 256.024 220.077 255.406 220.417C254.795 220.751 253.958 220.924 252.896 220.938L251.885 221.886ZM251.74 228.334H247.094L248.344 225.522H251.74C252.24 225.522 252.639 225.445 252.938 225.292C253.243 225.133 253.462 224.924 253.594 224.667C253.733 224.404 253.802 224.112 253.802 223.792C253.802 223.404 253.736 223.067 253.604 222.782C253.479 222.497 253.278 222.279 253 222.126C252.722 221.966 252.351 221.886 251.885 221.886H248.813L248.833 219.49H252.51L253.365 220.449C254.378 220.407 255.181 220.549 255.771 220.876C256.368 221.202 256.795 221.633 257.052 222.167C257.309 222.702 257.438 223.261 257.438 223.845C257.438 224.838 257.222 225.667 256.792 226.334C256.368 227.001 255.733 227.501 254.885 227.834C254.038 228.167 252.99 228.334 251.74 228.334Z" fill="white"/>
<rect x="339" y="196.334" width="208" height="49.3333" rx="4.66667" fill="#888888" stroke="#888888" stroke-width="4"/>
<path d="M403.75 225.522V228.334H395.667V225.522H403.75ZM396.969 213.167V228.334H393.313V213.167H396.969ZM402.708 219.188V221.907H395.667V219.188H402.708ZM403.781 213.167V215.99H395.667V213.167H403.781ZM408.063 217.063L409.646 220.167L411.281 217.063H414.927L411.969 222.553L415.083 228.334H411.406L409.646 225.001L407.896 228.334H404.219L407.333 222.553L404.385 217.063H408.063ZM419.625 219.23V232.667H416.115V217.063H419.385L419.625 219.23ZM426.542 222.563V222.782C426.542 223.601 426.448 224.362 426.26 225.063C426.073 225.765 425.795 226.376 425.427 226.897C425.059 227.417 424.601 227.824 424.052 228.115C423.51 228.4 422.882 228.542 422.167 228.542C421.493 228.542 420.913 228.393 420.427 228.095C419.941 227.796 419.535 227.383 419.208 226.855C418.882 226.327 418.618 225.723 418.417 225.042C418.215 224.362 418.056 223.643 417.938 222.886V222.605C418.056 221.792 418.215 221.039 418.417 220.345C418.618 219.643 418.882 219.032 419.208 218.511C419.535 217.99 419.938 217.584 420.417 217.292C420.903 217.001 421.483 216.855 422.156 216.855C422.872 216.855 423.5 216.99 424.042 217.261C424.59 217.532 425.049 217.921 425.417 218.428C425.792 218.928 426.073 219.529 426.26 220.23C426.448 220.931 426.542 221.709 426.542 222.563ZM423.031 222.782V222.563C423.031 222.126 423 221.726 422.938 221.365C422.875 220.997 422.774 220.678 422.635 220.407C422.503 220.136 422.326 219.928 422.104 219.782C421.882 219.636 421.608 219.563 421.281 219.563C420.906 219.563 420.59 219.622 420.333 219.74C420.083 219.851 419.882 220.025 419.729 220.261C419.583 220.49 419.479 220.779 419.417 221.126C419.361 221.466 419.337 221.865 419.344 222.324V223.178C419.33 223.706 419.382 224.171 419.5 224.574C419.618 224.97 419.823 225.279 420.115 225.501C420.406 225.723 420.802 225.834 421.302 225.834C421.635 225.834 421.913 225.758 422.135 225.605C422.358 225.445 422.535 225.226 422.667 224.949C422.799 224.664 422.892 224.338 422.948 223.97C423.003 223.601 423.031 223.206 423.031 222.782ZM431.646 219.855V228.334H428.135V217.063H431.417L431.646 219.855ZM434.979 216.98L434.917 220.24C434.778 220.226 434.59 220.209 434.354 220.188C434.118 220.167 433.92 220.157 433.76 220.157C433.351 220.157 432.997 220.206 432.698 220.303C432.406 220.393 432.163 220.532 431.969 220.72C431.781 220.9 431.642 221.129 431.552 221.407C431.469 221.685 431.431 222.008 431.438 222.376L430.802 221.959C430.802 221.202 430.875 220.515 431.021 219.897C431.174 219.272 431.389 218.733 431.667 218.282C431.944 217.824 432.281 217.473 432.677 217.23C433.073 216.98 433.517 216.855 434.01 216.855C434.184 216.855 434.354 216.865 434.521 216.886C434.694 216.907 434.847 216.938 434.979 216.98ZM441.438 228.542C440.521 228.542 439.701 228.4 438.979 228.115C438.257 227.824 437.646 227.424 437.146 226.917C436.653 226.41 436.274 225.827 436.01 225.167C435.753 224.508 435.625 223.81 435.625 223.074V222.678C435.625 221.851 435.74 221.088 435.969 220.386C436.198 219.678 436.538 219.06 436.99 218.532C437.441 218.004 438.007 217.595 438.688 217.303C439.368 217.004 440.16 216.855 441.063 216.855C441.861 216.855 442.576 216.983 443.208 217.24C443.84 217.497 444.375 217.865 444.813 218.345C445.257 218.824 445.594 219.404 445.823 220.084C446.059 220.765 446.177 221.529 446.177 222.376V223.803H436.969V221.605H442.75V221.334C442.757 220.959 442.691 220.64 442.552 220.376C442.42 220.112 442.226 219.91 441.969 219.772C441.712 219.633 441.399 219.563 441.031 219.563C440.649 219.563 440.333 219.647 440.083 219.813C439.84 219.98 439.649 220.209 439.51 220.501C439.378 220.785 439.285 221.115 439.229 221.49C439.174 221.865 439.146 222.261 439.146 222.678V223.074C439.146 223.49 439.201 223.869 439.313 224.209C439.431 224.549 439.597 224.841 439.813 225.084C440.035 225.32 440.299 225.504 440.604 225.636C440.917 225.768 441.271 225.834 441.667 225.834C442.146 225.834 442.618 225.744 443.083 225.563C443.549 225.383 443.948 225.084 444.281 224.667L445.875 226.563C445.646 226.89 445.319 227.206 444.896 227.511C444.479 227.817 443.979 228.067 443.396 228.261C442.813 228.449 442.16 228.542 441.438 228.542ZM453.51 225.167C453.51 224.973 453.444 224.806 453.313 224.667C453.188 224.522 452.965 224.39 452.646 224.272C452.326 224.147 451.878 224.022 451.302 223.897C450.753 223.779 450.236 223.622 449.75 223.428C449.271 223.233 448.851 222.997 448.49 222.72C448.128 222.442 447.844 222.112 447.635 221.73C447.434 221.348 447.333 220.91 447.333 220.417C447.333 219.938 447.434 219.487 447.635 219.063C447.844 218.633 448.146 218.254 448.542 217.928C448.944 217.595 449.434 217.334 450.01 217.147C450.587 216.952 451.243 216.855 451.979 216.855C452.993 216.855 453.868 217.011 454.604 217.324C455.34 217.629 455.906 218.06 456.302 218.615C456.705 219.164 456.906 219.799 456.906 220.522H453.396C453.396 220.237 453.347 219.994 453.25 219.792C453.16 219.591 453.01 219.438 452.802 219.334C452.594 219.223 452.316 219.167 451.969 219.167C451.726 219.167 451.503 219.213 451.302 219.303C451.108 219.393 450.951 219.518 450.833 219.678C450.715 219.838 450.656 220.025 450.656 220.24C450.656 220.393 450.691 220.532 450.76 220.657C450.837 220.775 450.951 220.886 451.104 220.99C451.257 221.088 451.451 221.178 451.688 221.261C451.924 221.338 452.208 221.407 452.542 221.47C453.299 221.608 454.007 221.806 454.667 222.063C455.326 222.32 455.861 222.685 456.271 223.157C456.688 223.629 456.896 224.265 456.896 225.063C456.896 225.563 456.781 226.025 456.552 226.449C456.323 226.865 455.993 227.233 455.563 227.553C455.132 227.865 454.615 228.108 454.01 228.282C453.406 228.456 452.726 228.542 451.969 228.542C450.892 228.542 449.983 228.351 449.24 227.97C448.497 227.581 447.934 227.095 447.552 226.511C447.177 225.921 446.99 225.324 446.99 224.72H450.26C450.274 225.067 450.358 225.351 450.51 225.574C450.67 225.796 450.882 225.959 451.146 226.063C451.41 226.167 451.715 226.22 452.063 226.22C452.382 226.22 452.646 226.174 452.854 226.084C453.069 225.994 453.233 225.872 453.344 225.72C453.455 225.56 453.51 225.376 453.51 225.167ZM464.448 225.167C464.448 224.973 464.382 224.806 464.25 224.667C464.125 224.522 463.903 224.39 463.583 224.272C463.264 224.147 462.816 224.022 462.24 223.897C461.691 223.779 461.174 223.622 460.688 223.428C460.208 223.233 459.788 222.997 459.427 222.72C459.066 222.442 458.781 222.112 458.573 221.73C458.372 221.348 458.271 220.91 458.271 220.417C458.271 219.938 458.372 219.487 458.573 219.063C458.781 218.633 459.083 218.254 459.479 217.928C459.882 217.595 460.372 217.334 460.948 217.147C461.524 216.952 462.181 216.855 462.917 216.855C463.931 216.855 464.806 217.011 465.542 217.324C466.278 217.629 466.844 218.06 467.24 218.615C467.642 219.164 467.844 219.799 467.844 220.522H464.333C464.333 220.237 464.285 219.994 464.188 219.792C464.097 219.591 463.948 219.438 463.74 219.334C463.531 219.223 463.253 219.167 462.906 219.167C462.663 219.167 462.441 219.213 462.24 219.303C462.045 219.393 461.889 219.518 461.771 219.678C461.653 219.838 461.594 220.025 461.594 220.24C461.594 220.393 461.628 220.532 461.698 220.657C461.774 220.775 461.889 220.886 462.042 220.99C462.194 221.088 462.389 221.178 462.625 221.261C462.861 221.338 463.146 221.407 463.479 221.47C464.236 221.608 464.944 221.806 465.604 222.063C466.264 222.32 466.799 222.685 467.208 223.157C467.625 223.629 467.833 224.265 467.833 225.063C467.833 225.563 467.719 226.025 467.49 226.449C467.26 226.865 466.931 227.233 466.5 227.553C466.069 227.865 465.552 228.108 464.948 228.282C464.344 228.456 463.663 228.542 462.906 228.542C461.83 228.542 460.92 228.351 460.177 227.97C459.434 227.581 458.872 227.095 458.49 226.511C458.115 225.921 457.927 225.324 457.927 224.72H461.198C461.212 225.067 461.295 225.351 461.448 225.574C461.608 225.796 461.819 225.959 462.083 226.063C462.347 226.167 462.653 226.22 463 226.22C463.319 226.22 463.583 226.174 463.792 226.084C464.007 225.994 464.17 225.872 464.281 225.72C464.392 225.56 464.448 225.376 464.448 225.167ZM475.677 223.574V213.167H479.323V223.574C479.323 224.588 479.09 225.466 478.625 226.209C478.167 226.952 477.542 227.529 476.75 227.938C475.965 228.341 475.083 228.542 474.104 228.542C473.09 228.542 472.188 228.372 471.396 228.032C470.611 227.692 469.993 227.167 469.542 226.459C469.097 225.751 468.875 224.848 468.875 223.751H472.542C472.542 224.265 472.601 224.667 472.719 224.959C472.837 225.244 473.01 225.445 473.24 225.563C473.476 225.674 473.764 225.73 474.104 225.73C474.438 225.73 474.719 225.647 474.948 225.48C475.184 225.306 475.365 225.06 475.49 224.74C475.615 224.414 475.677 224.025 475.677 223.574ZM489.458 224.303C489.458 224.067 489.424 223.855 489.354 223.667C489.285 223.473 489.156 223.292 488.969 223.126C488.781 222.959 488.51 222.792 488.156 222.626C487.809 222.452 487.351 222.272 486.781 222.084C486.115 221.862 485.472 221.612 484.854 221.334C484.236 221.049 483.684 220.72 483.198 220.345C482.712 219.963 482.326 219.518 482.042 219.011C481.757 218.497 481.615 217.9 481.615 217.22C481.615 216.567 481.76 215.98 482.052 215.459C482.344 214.931 482.75 214.483 483.271 214.115C483.799 213.74 484.417 213.456 485.125 213.261C485.833 213.06 486.608 212.959 487.448 212.959C488.559 212.959 489.538 213.154 490.385 213.542C491.24 213.924 491.906 214.47 492.385 215.178C492.872 215.879 493.115 216.709 493.115 217.667H489.479C489.479 217.285 489.399 216.949 489.24 216.657C489.087 216.365 488.854 216.136 488.542 215.97C488.229 215.803 487.837 215.72 487.365 215.72C486.906 215.72 486.521 215.789 486.208 215.928C485.896 216.067 485.66 216.254 485.5 216.49C485.34 216.72 485.26 216.973 485.26 217.251C485.26 217.48 485.323 217.688 485.448 217.876C485.58 218.056 485.764 218.226 486 218.386C486.243 218.546 486.535 218.699 486.875 218.845C487.222 218.99 487.611 219.133 488.042 219.272C488.847 219.529 489.563 219.817 490.188 220.136C490.819 220.449 491.351 220.806 491.781 221.209C492.219 221.605 492.549 222.056 492.771 222.563C493 223.07 493.115 223.643 493.115 224.282C493.115 224.963 492.983 225.567 492.719 226.095C492.455 226.622 492.076 227.07 491.583 227.438C491.09 227.799 490.5 228.074 489.813 228.261C489.125 228.449 488.358 228.542 487.51 228.542C486.733 228.542 485.965 228.445 485.208 228.251C484.458 228.049 483.778 227.744 483.167 227.334C482.556 226.917 482.066 226.386 481.698 225.74C481.337 225.088 481.156 224.313 481.156 223.417H484.823C484.823 223.862 484.882 224.237 485 224.542C485.118 224.848 485.292 225.095 485.521 225.282C485.75 225.463 486.031 225.595 486.365 225.678C486.698 225.754 487.08 225.792 487.51 225.792C487.976 225.792 488.351 225.726 488.635 225.595C488.92 225.456 489.128 225.275 489.26 225.053C489.392 224.824 489.458 224.574 489.458 224.303Z" fill="white"/>
<rect x="571" y="196.22" width="208" height="49.3333" rx="4.66667" fill="#888888" stroke="#888888" stroke-width="4"/>
<path d="M614.833 213.054H620.802C621.969 213.054 622.983 213.227 623.844 213.575C624.705 213.922 625.368 214.436 625.833 215.116C626.306 215.797 626.542 216.637 626.542 217.637C626.542 218.505 626.406 219.231 626.135 219.814C625.865 220.398 625.486 220.88 625 221.262C624.521 221.637 623.962 221.946 623.323 222.189L622.125 222.866H617.115L617.094 220.043H620.802C621.267 220.043 621.653 219.96 621.958 219.793C622.264 219.627 622.493 219.391 622.646 219.085C622.806 218.773 622.885 218.401 622.885 217.97C622.885 217.533 622.806 217.158 622.646 216.845C622.486 216.533 622.25 216.293 621.937 216.127C621.632 215.96 621.253 215.877 620.802 215.877H618.49V228.22H614.833V213.054ZM623.135 228.22L619.781 221.512L623.656 221.491L627.052 228.064V228.22H623.135ZM634.042 228.429C633.125 228.429 632.306 228.286 631.583 228.002C630.861 227.71 630.25 227.311 629.75 226.804C629.257 226.297 628.878 225.714 628.615 225.054C628.358 224.394 628.229 223.696 628.229 222.96V222.564C628.229 221.738 628.344 220.974 628.573 220.273C628.802 219.564 629.142 218.946 629.594 218.418C630.045 217.891 630.611 217.481 631.292 217.189C631.972 216.891 632.764 216.741 633.667 216.741C634.465 216.741 635.181 216.87 635.813 217.127C636.444 217.384 636.979 217.752 637.417 218.231C637.861 218.71 638.198 219.29 638.427 219.97C638.663 220.651 638.781 221.415 638.781 222.262V223.689H629.573V221.491H635.354V221.22C635.361 220.845 635.295 220.526 635.156 220.262C635.024 219.998 634.83 219.797 634.573 219.658C634.316 219.519 634.003 219.45 633.635 219.45C633.253 219.45 632.938 219.533 632.688 219.7C632.444 219.866 632.253 220.095 632.115 220.387C631.983 220.672 631.889 221.002 631.833 221.377C631.778 221.752 631.75 222.148 631.75 222.564V222.96C631.75 223.377 631.806 223.755 631.917 224.095C632.035 224.436 632.201 224.727 632.417 224.97C632.639 225.207 632.903 225.391 633.208 225.523C633.521 225.654 633.875 225.72 634.271 225.72C634.75 225.72 635.222 225.63 635.688 225.45C636.153 225.269 636.552 224.97 636.885 224.554L638.479 226.45C638.25 226.776 637.924 227.092 637.5 227.398C637.083 227.703 636.583 227.953 636 228.148C635.417 228.335 634.764 228.429 634.042 228.429ZM646.063 225.387V220.741C646.063 220.422 646.017 220.148 645.927 219.918C645.837 219.689 645.694 219.512 645.5 219.387C645.306 219.255 645.045 219.189 644.719 219.189C644.455 219.189 644.229 219.234 644.042 219.325C643.854 219.415 643.712 219.55 643.615 219.731C643.517 219.911 643.469 220.141 643.469 220.418H639.958C639.958 219.898 640.073 219.415 640.302 218.97C640.538 218.519 640.872 218.127 641.302 217.793C641.74 217.46 642.26 217.203 642.865 217.023C643.476 216.835 644.156 216.741 644.906 216.741C645.802 216.741 646.601 216.891 647.302 217.189C648.01 217.488 648.569 217.936 648.979 218.533C649.389 219.123 649.594 219.866 649.594 220.762V225.377C649.594 226.113 649.635 226.672 649.719 227.054C649.802 227.429 649.92 227.759 650.073 228.043V228.22H646.552C646.385 227.873 646.26 227.45 646.177 226.95C646.101 226.443 646.063 225.922 646.063 225.387ZM646.49 221.335L646.51 223.21H644.958C644.632 223.21 644.354 223.255 644.125 223.345C643.903 223.436 643.722 223.561 643.583 223.72C643.451 223.873 643.354 224.047 643.292 224.241C643.236 224.436 643.208 224.641 643.208 224.856C643.208 225.064 643.257 225.252 643.354 225.418C643.458 225.578 643.597 225.703 643.771 225.793C643.944 225.884 644.139 225.929 644.354 225.929C644.743 225.929 645.073 225.856 645.344 225.71C645.622 225.557 645.833 225.373 645.979 225.158C646.125 224.943 646.198 224.741 646.198 224.554L646.969 225.991C646.83 226.269 646.67 226.55 646.49 226.835C646.316 227.12 646.097 227.384 645.833 227.627C645.576 227.863 645.26 228.057 644.885 228.21C644.51 228.356 644.056 228.429 643.521 228.429C642.826 228.429 642.188 228.286 641.604 228.002C641.028 227.717 640.566 227.321 640.219 226.814C639.872 226.3 639.698 225.71 639.698 225.043C639.698 224.46 639.802 223.939 640.01 223.481C640.226 223.023 640.549 222.634 640.979 222.314C641.41 221.995 641.958 221.752 642.625 221.585C643.292 221.418 644.076 221.335 644.979 221.335H646.49ZM656.302 225.72C656.628 225.72 656.906 225.661 657.135 225.543C657.372 225.418 657.549 225.245 657.667 225.023C657.792 224.793 657.851 224.519 657.844 224.2H661.146C661.153 225.047 660.944 225.79 660.521 226.429C660.104 227.061 659.535 227.554 658.812 227.908C658.097 228.255 657.288 228.429 656.385 228.429C655.503 228.429 654.733 228.286 654.073 228.002C653.413 227.71 652.861 227.307 652.417 226.793C651.979 226.273 651.649 225.665 651.427 224.97C651.212 224.276 651.104 223.523 651.104 222.71V222.47C651.104 221.658 651.212 220.904 651.427 220.21C651.649 219.509 651.979 218.901 652.417 218.387C652.861 217.866 653.41 217.464 654.062 217.179C654.722 216.887 655.49 216.741 656.365 216.741C657.302 216.741 658.128 216.918 658.844 217.273C659.566 217.627 660.132 218.141 660.542 218.814C660.951 219.488 661.153 220.304 661.146 221.262H657.844C657.851 220.922 657.799 220.616 657.687 220.345C657.576 220.075 657.403 219.859 657.167 219.7C656.937 219.533 656.642 219.45 656.281 219.45C655.92 219.45 655.628 219.529 655.406 219.689C655.184 219.849 655.014 220.071 654.896 220.356C654.785 220.634 654.708 220.953 654.667 221.314C654.632 221.675 654.615 222.061 654.615 222.47V222.71C654.615 223.127 654.632 223.519 654.667 223.887C654.708 224.248 654.788 224.568 654.906 224.845C655.024 225.116 655.194 225.332 655.417 225.491C655.639 225.644 655.934 225.72 656.302 225.72ZM668.583 216.95V219.387H661.792V216.95H668.583ZM663.219 214.148H666.729V224.543C666.729 224.842 666.764 225.075 666.833 225.241C666.903 225.401 667.021 225.516 667.188 225.585C667.361 225.648 667.59 225.679 667.875 225.679C668.076 225.679 668.243 225.675 668.375 225.668C668.507 225.654 668.632 225.637 668.75 225.616V228.127C668.451 228.224 668.139 228.297 667.813 228.345C667.486 228.401 667.139 228.429 666.771 228.429C666.021 228.429 665.378 228.311 664.844 228.075C664.316 227.839 663.913 227.467 663.635 226.96C663.358 226.453 663.219 225.793 663.219 224.981V214.148ZM688.125 213.054V228.22H684.479L679.115 218.783V228.22H675.458V213.054H679.115L684.479 222.491V213.054H688.125ZM696.125 225.387V220.741C696.125 220.422 696.08 220.148 695.99 219.918C695.899 219.689 695.757 219.512 695.563 219.387C695.368 219.255 695.108 219.189 694.781 219.189C694.517 219.189 694.292 219.234 694.104 219.325C693.917 219.415 693.774 219.55 693.677 219.731C693.58 219.911 693.531 220.141 693.531 220.418H690.021C690.021 219.898 690.135 219.415 690.365 218.97C690.601 218.519 690.934 218.127 691.365 217.793C691.802 217.46 692.323 217.203 692.927 217.023C693.538 216.835 694.219 216.741 694.969 216.741C695.865 216.741 696.663 216.891 697.365 217.189C698.073 217.488 698.632 217.936 699.042 218.533C699.451 219.123 699.656 219.866 699.656 220.762V225.377C699.656 226.113 699.698 226.672 699.781 227.054C699.865 227.429 699.983 227.759 700.135 228.043V228.22H696.615C696.448 227.873 696.323 227.45 696.24 226.95C696.163 226.443 696.125 225.922 696.125 225.387ZM696.552 221.335L696.573 223.21H695.021C694.694 223.21 694.417 223.255 694.188 223.345C693.965 223.436 693.785 223.561 693.646 223.72C693.514 223.873 693.417 224.047 693.354 224.241C693.299 224.436 693.271 224.641 693.271 224.856C693.271 225.064 693.319 225.252 693.417 225.418C693.521 225.578 693.66 225.703 693.833 225.793C694.007 225.884 694.201 225.929 694.417 225.929C694.806 225.929 695.135 225.856 695.406 225.71C695.684 225.557 695.896 225.373 696.042 225.158C696.188 224.943 696.26 224.741 696.26 224.554L697.031 225.991C696.892 226.269 696.733 226.55 696.552 226.835C696.378 227.12 696.16 227.384 695.896 227.627C695.639 227.863 695.323 228.057 694.948 228.21C694.573 228.356 694.118 228.429 693.583 228.429C692.889 228.429 692.25 228.286 691.667 228.002C691.09 227.717 690.628 227.321 690.281 226.814C689.934 226.3 689.76 225.71 689.76 225.043C689.76 224.46 689.865 223.939 690.073 223.481C690.288 223.023 690.611 222.634 691.042 222.314C691.472 221.995 692.021 221.752 692.688 221.585C693.354 221.418 694.139 221.335 695.042 221.335H696.552ZM707.542 216.95V219.387H700.75V216.95H707.542ZM702.177 214.148H705.687V224.543C705.687 224.842 705.722 225.075 705.792 225.241C705.861 225.401 705.979 225.516 706.146 225.585C706.319 225.648 706.549 225.679 706.833 225.679C707.035 225.679 707.201 225.675 707.333 225.668C707.465 225.654 707.59 225.637 707.708 225.616V228.127C707.41 228.224 707.097 228.297 706.771 228.345C706.444 228.401 706.097 228.429 705.729 228.429C704.979 228.429 704.337 228.311 703.802 228.075C703.274 227.839 702.872 227.467 702.594 226.96C702.316 226.453 702.177 225.793 702.177 224.981V214.148ZM712.646 216.95V228.22H709.125V216.95H712.646ZM708.917 214.043C708.917 213.543 709.097 213.134 709.458 212.814C709.819 212.495 710.288 212.335 710.865 212.335C711.441 212.335 711.91 212.495 712.271 212.814C712.632 213.134 712.813 213.543 712.813 214.043C712.813 214.543 712.632 214.953 712.271 215.273C711.91 215.592 711.441 215.752 710.865 215.752C710.288 215.752 709.819 215.592 709.458 215.273C709.097 214.953 708.917 214.543 708.917 214.043ZM718.875 225.814L721.094 216.95H724.792L721.104 228.22H718.917L718.875 225.814ZM717.563 216.95L719.75 225.814L719.729 228.22H717.531L713.854 216.95H717.563ZM731.146 228.429C730.229 228.429 729.41 228.286 728.688 228.002C727.965 227.71 727.354 227.311 726.854 226.804C726.361 226.297 725.983 225.714 725.719 225.054C725.462 224.394 725.333 223.696 725.333 222.96V222.564C725.333 221.738 725.448 220.974 725.677 220.273C725.906 219.564 726.247 218.946 726.698 218.418C727.149 217.891 727.715 217.481 728.396 217.189C729.076 216.891 729.868 216.741 730.771 216.741C731.569 216.741 732.285 216.87 732.917 217.127C733.549 217.384 734.083 217.752 734.521 218.231C734.965 218.71 735.302 219.29 735.531 219.97C735.767 220.651 735.885 221.415 735.885 222.262V223.689H726.677V221.491H732.458V221.22C732.465 220.845 732.399 220.526 732.26 220.262C732.128 219.998 731.934 219.797 731.677 219.658C731.42 219.519 731.108 219.45 730.74 219.45C730.358 219.45 730.042 219.533 729.792 219.7C729.549 219.866 729.358 220.095 729.219 220.387C729.087 220.672 728.993 221.002 728.938 221.377C728.882 221.752 728.854 222.148 728.854 222.564V222.96C728.854 223.377 728.91 223.755 729.021 224.095C729.139 224.436 729.306 224.727 729.521 224.97C729.743 225.207 730.007 225.391 730.313 225.523C730.625 225.654 730.979 225.72 731.375 225.72C731.854 225.72 732.326 225.63 732.792 225.45C733.257 225.269 733.656 224.97 733.99 224.554L735.583 226.45C735.354 226.776 735.028 227.092 734.604 227.398C734.188 227.703 733.688 227.953 733.104 228.148C732.521 228.335 731.868 228.429 731.146 228.429Z" fill="white"/>
<rect x="804" y="195.975" width="208" height="49.3333" rx="4.66667" fill="#888888" stroke="#888888" stroke-width="4"/>
<path d="M868.823 212.808H874.792C875.958 212.808 876.972 212.982 877.833 213.329C878.694 213.676 879.358 214.19 879.823 214.871C880.295 215.551 880.531 216.392 880.531 217.392C880.531 218.26 880.396 218.985 880.125 219.569C879.854 220.152 879.476 220.635 878.99 221.017C878.51 221.392 877.951 221.701 877.312 221.944L876.115 222.621H871.104L871.083 219.798H874.792C875.257 219.798 875.642 219.715 875.948 219.548C876.253 219.381 876.483 219.145 876.635 218.84C876.795 218.527 876.875 218.156 876.875 217.725C876.875 217.287 876.795 216.912 876.635 216.6C876.476 216.287 876.24 216.048 875.927 215.881C875.622 215.715 875.243 215.631 874.792 215.631H872.479V227.975H868.823V212.808ZM877.125 227.975L873.771 221.267L877.646 221.246L881.042 227.819V227.975H877.125ZM888.031 228.183C887.115 228.183 886.295 228.041 885.573 227.756C884.851 227.465 884.24 227.065 883.74 226.558C883.247 226.051 882.868 225.468 882.604 224.808C882.347 224.149 882.219 223.451 882.219 222.715V222.319C882.219 221.492 882.333 220.728 882.562 220.027C882.792 219.319 883.132 218.701 883.583 218.173C884.035 217.645 884.601 217.235 885.281 216.944C885.962 216.645 886.753 216.496 887.656 216.496C888.455 216.496 889.17 216.624 889.802 216.881C890.434 217.138 890.969 217.506 891.406 217.985C891.851 218.465 892.187 219.044 892.417 219.725C892.653 220.406 892.771 221.169 892.771 222.017V223.444H883.562V221.246H889.344V220.975C889.351 220.6 889.285 220.281 889.146 220.017C889.014 219.753 888.819 219.551 888.562 219.412C888.306 219.274 887.993 219.204 887.625 219.204C887.243 219.204 886.927 219.287 886.677 219.454C886.434 219.621 886.243 219.85 886.104 220.142C885.972 220.426 885.878 220.756 885.823 221.131C885.767 221.506 885.74 221.902 885.74 222.319V222.715C885.74 223.131 885.795 223.51 885.906 223.85C886.024 224.19 886.191 224.482 886.406 224.725C886.628 224.961 886.892 225.145 887.198 225.277C887.51 225.409 887.865 225.475 888.26 225.475C888.74 225.475 889.212 225.385 889.677 225.204C890.142 225.024 890.542 224.725 890.875 224.308L892.469 226.204C892.24 226.531 891.913 226.847 891.49 227.152C891.073 227.458 890.573 227.708 889.99 227.902C889.406 228.09 888.753 228.183 888.031 228.183ZM900.052 225.142V220.496C900.052 220.176 900.007 219.902 899.917 219.673C899.826 219.444 899.684 219.267 899.49 219.142C899.295 219.01 899.035 218.944 898.708 218.944C898.444 218.944 898.219 218.989 898.031 219.079C897.844 219.169 897.701 219.305 897.604 219.485C897.507 219.666 897.458 219.895 897.458 220.173H893.948C893.948 219.652 894.062 219.169 894.292 218.725C894.528 218.274 894.861 217.881 895.292 217.548C895.729 217.215 896.25 216.958 896.854 216.777C897.465 216.59 898.146 216.496 898.896 216.496C899.792 216.496 900.59 216.645 901.292 216.944C902 217.242 902.559 217.69 902.969 218.287C903.378 218.878 903.583 219.621 903.583 220.517V225.131C903.583 225.867 903.625 226.426 903.708 226.808C903.792 227.183 903.91 227.513 904.062 227.798V227.975H900.542C900.375 227.628 900.25 227.204 900.167 226.704C900.09 226.197 900.052 225.676 900.052 225.142ZM900.479 221.09L900.5 222.965H898.948C898.622 222.965 898.344 223.01 898.115 223.1C897.892 223.19 897.712 223.315 897.573 223.475C897.441 223.628 897.344 223.801 897.281 223.996C897.226 224.19 897.198 224.395 897.198 224.61C897.198 224.819 897.247 225.006 897.344 225.173C897.448 225.333 897.587 225.458 897.76 225.548C897.934 225.638 898.128 225.683 898.344 225.683C898.733 225.683 899.062 225.61 899.333 225.465C899.611 225.312 899.823 225.128 899.969 224.912C900.115 224.697 900.187 224.496 900.187 224.308L900.958 225.746C900.819 226.024 900.66 226.305 900.479 226.59C900.306 226.874 900.087 227.138 899.823 227.381C899.566 227.617 899.25 227.812 898.875 227.965C898.5 228.11 898.045 228.183 897.51 228.183C896.816 228.183 896.177 228.041 895.594 227.756C895.017 227.472 894.556 227.076 894.208 226.569C893.861 226.055 893.687 225.465 893.687 224.798C893.687 224.215 893.792 223.694 894 223.235C894.215 222.777 894.538 222.388 894.969 222.069C895.399 221.749 895.948 221.506 896.615 221.34C897.281 221.173 898.066 221.09 898.969 221.09H900.479ZM910.292 225.475C910.618 225.475 910.896 225.416 911.125 225.298C911.361 225.173 911.538 224.999 911.656 224.777C911.781 224.548 911.84 224.274 911.833 223.954H915.135C915.142 224.801 914.934 225.544 914.51 226.183C914.094 226.815 913.524 227.308 912.802 227.662C912.087 228.01 911.278 228.183 910.375 228.183C909.493 228.183 908.722 228.041 908.062 227.756C907.403 227.465 906.851 227.062 906.406 226.548C905.969 226.027 905.639 225.419 905.417 224.725C905.201 224.031 905.094 223.277 905.094 222.465V222.225C905.094 221.412 905.201 220.659 905.417 219.965C905.639 219.263 905.969 218.656 906.406 218.142C906.851 217.621 907.399 217.218 908.052 216.933C908.712 216.642 909.479 216.496 910.354 216.496C911.292 216.496 912.118 216.673 912.833 217.027C913.556 217.381 914.122 217.895 914.531 218.569C914.941 219.242 915.142 220.058 915.135 221.017H911.833C911.84 220.676 911.788 220.371 911.677 220.1C911.566 219.829 911.392 219.614 911.156 219.454C910.927 219.287 910.632 219.204 910.271 219.204C909.91 219.204 909.618 219.284 909.396 219.444C909.174 219.603 909.003 219.826 908.885 220.11C908.774 220.388 908.698 220.708 908.656 221.069C908.622 221.43 908.604 221.815 908.604 222.225V222.465C908.604 222.881 908.622 223.274 908.656 223.642C908.698 224.003 908.778 224.322 908.896 224.6C909.014 224.871 909.184 225.086 909.406 225.246C909.628 225.399 909.924 225.475 910.292 225.475ZM922.573 216.704V219.142H915.781V216.704H922.573ZM917.208 213.902H920.719V224.298C920.719 224.597 920.753 224.829 920.823 224.996C920.892 225.156 921.01 225.27 921.177 225.34C921.351 225.402 921.58 225.433 921.865 225.433C922.066 225.433 922.233 225.43 922.365 225.423C922.497 225.409 922.622 225.392 922.74 225.371V227.881C922.441 227.978 922.128 228.051 921.802 228.1C921.476 228.156 921.128 228.183 920.76 228.183C920.01 228.183 919.368 228.065 918.833 227.829C918.306 227.593 917.903 227.222 917.625 226.715C917.347 226.208 917.208 225.548 917.208 224.735V213.902ZM930.167 223.215V212.808H933.812V223.215C933.812 224.228 933.58 225.107 933.115 225.85C932.656 226.593 932.031 227.169 931.24 227.579C930.455 227.982 929.573 228.183 928.594 228.183C927.58 228.183 926.677 228.013 925.885 227.673C925.101 227.333 924.483 226.808 924.031 226.1C923.587 225.392 923.365 224.489 923.365 223.392H927.031C927.031 223.906 927.09 224.308 927.208 224.6C927.326 224.885 927.5 225.086 927.729 225.204C927.965 225.315 928.253 225.371 928.594 225.371C928.927 225.371 929.208 225.287 929.437 225.121C929.674 224.947 929.854 224.701 929.979 224.381C930.104 224.055 930.167 223.666 930.167 223.215ZM943.948 223.944C943.948 223.708 943.913 223.496 943.844 223.308C943.774 223.114 943.646 222.933 943.458 222.767C943.271 222.6 943 222.433 942.646 222.267C942.299 222.093 941.84 221.912 941.271 221.725C940.604 221.503 939.962 221.253 939.344 220.975C938.726 220.69 938.174 220.36 937.687 219.985C937.201 219.603 936.816 219.159 936.531 218.652C936.247 218.138 936.104 217.541 936.104 216.86C936.104 216.208 936.25 215.621 936.542 215.1C936.833 214.572 937.24 214.124 937.76 213.756C938.288 213.381 938.906 213.097 939.615 212.902C940.323 212.701 941.097 212.6 941.937 212.6C943.049 212.6 944.028 212.794 944.875 213.183C945.729 213.565 946.396 214.11 946.875 214.819C947.361 215.52 947.604 216.35 947.604 217.308H943.969C943.969 216.926 943.889 216.59 943.729 216.298C943.576 216.006 943.344 215.777 943.031 215.61C942.719 215.444 942.326 215.36 941.854 215.36C941.396 215.36 941.01 215.43 940.698 215.569C940.385 215.708 940.149 215.895 939.99 216.131C939.83 216.36 939.75 216.614 939.75 216.892C939.75 217.121 939.812 217.329 939.937 217.517C940.069 217.697 940.253 217.867 940.49 218.027C940.733 218.187 941.024 218.34 941.365 218.485C941.712 218.631 942.101 218.774 942.531 218.912C943.337 219.169 944.052 219.458 944.677 219.777C945.309 220.09 945.84 220.447 946.271 220.85C946.708 221.246 947.038 221.697 947.26 222.204C947.49 222.711 947.604 223.284 947.604 223.923C947.604 224.603 947.472 225.208 947.208 225.735C946.944 226.263 946.566 226.711 946.073 227.079C945.58 227.44 944.99 227.715 944.302 227.902C943.615 228.09 942.847 228.183 942 228.183C941.222 228.183 940.455 228.086 939.698 227.892C938.948 227.69 938.267 227.385 937.656 226.975C937.045 226.558 936.556 226.027 936.187 225.381C935.826 224.728 935.646 223.954 935.646 223.058H939.312C939.312 223.503 939.372 223.878 939.49 224.183C939.608 224.489 939.781 224.735 940.01 224.923C940.24 225.103 940.521 225.235 940.854 225.319C941.187 225.395 941.569 225.433 942 225.433C942.465 225.433 942.84 225.367 943.125 225.235C943.41 225.097 943.618 224.916 943.75 224.694C943.882 224.465 943.948 224.215 943.948 223.944Z" fill="white"/>
<rect x="1037" y="196.693" width="208" height="49.3333" rx="4.66667" fill="#888888" stroke="#888888" stroke-width="4"/>
<path d="M1116.84 213.527V228.693H1113.2L1107.83 219.256V228.693H1104.18V213.527H1107.83L1113.2 222.964V213.527H1116.84ZM1118.55 223.172V222.954C1118.55 222.127 1118.67 221.367 1118.91 220.672C1119.14 219.971 1119.49 219.363 1119.95 218.849C1120.41 218.336 1120.97 217.936 1121.65 217.652C1122.32 217.36 1123.1 217.214 1123.98 217.214C1124.87 217.214 1125.65 217.36 1126.32 217.652C1127 217.936 1127.57 218.336 1128.03 218.849C1128.49 219.363 1128.84 219.971 1129.07 220.672C1129.31 221.367 1129.43 222.127 1129.43 222.954V223.172C1129.43 223.992 1129.31 224.752 1129.07 225.454C1128.84 226.148 1128.49 226.756 1128.03 227.277C1127.57 227.79 1127.01 228.19 1126.33 228.474C1125.66 228.759 1124.88 228.902 1124 228.902C1123.12 228.902 1122.34 228.759 1121.66 228.474C1120.98 228.19 1120.41 227.79 1119.95 227.277C1119.49 226.756 1119.14 226.148 1118.91 225.454C1118.67 224.752 1118.55 223.992 1118.55 223.172ZM1122.06 222.954V223.172C1122.06 223.596 1122.09 223.992 1122.16 224.36C1122.22 224.728 1122.32 225.051 1122.47 225.329C1122.61 225.599 1122.81 225.811 1123.06 225.964C1123.31 226.117 1123.62 226.193 1124 226.193C1124.37 226.193 1124.67 226.117 1124.92 225.964C1125.17 225.811 1125.36 225.599 1125.51 225.329C1125.66 225.051 1125.76 224.728 1125.82 224.36C1125.89 223.992 1125.92 223.596 1125.92 223.172V222.954C1125.92 222.544 1125.89 222.159 1125.82 221.797C1125.76 221.429 1125.66 221.106 1125.51 220.829C1125.36 220.544 1125.17 220.322 1124.92 220.162C1124.67 220.002 1124.35 219.922 1123.98 219.922C1123.61 219.922 1123.3 220.002 1123.05 220.162C1122.81 220.322 1122.61 220.544 1122.47 220.829C1122.32 221.106 1122.22 221.429 1122.16 221.797C1122.09 222.159 1122.06 222.544 1122.06 222.954ZM1137.47 226.11V212.693H1141V228.693H1137.83L1137.47 226.11ZM1130.55 223.193V222.974C1130.55 222.12 1130.65 221.343 1130.83 220.641C1131.02 219.933 1131.3 219.325 1131.67 218.818C1132.03 218.304 1132.49 217.909 1133.04 217.631C1133.59 217.353 1134.22 217.214 1134.94 217.214C1135.58 217.214 1136.14 217.363 1136.61 217.662C1137.09 217.954 1137.5 218.363 1137.84 218.891C1138.18 219.419 1138.46 220.037 1138.68 220.745C1138.89 221.447 1139.06 222.204 1139.17 223.016V223.277C1139.06 224.04 1138.89 224.763 1138.68 225.443C1138.46 226.117 1138.18 226.714 1137.84 227.235C1137.5 227.756 1137.09 228.165 1136.6 228.464C1136.13 228.756 1135.56 228.902 1134.92 228.902C1134.2 228.902 1133.57 228.759 1133.02 228.474C1132.48 228.19 1132.02 227.79 1131.66 227.277C1131.3 226.763 1131.02 226.159 1130.83 225.464C1130.65 224.77 1130.55 224.013 1130.55 223.193ZM1134.06 222.974V223.193C1134.06 223.617 1134.09 224.009 1134.15 224.37C1134.2 224.731 1134.3 225.051 1134.43 225.329C1134.57 225.599 1134.75 225.811 1134.97 225.964C1135.2 226.117 1135.48 226.193 1135.81 226.193C1136.26 226.193 1136.64 226.086 1136.93 225.87C1137.23 225.655 1137.44 225.349 1137.58 224.954C1137.73 224.558 1137.79 224.093 1137.77 223.558V222.735C1137.78 222.277 1137.75 221.874 1137.68 221.527C1137.6 221.172 1137.48 220.877 1137.31 220.641C1137.15 220.405 1136.95 220.228 1136.7 220.11C1136.45 219.985 1136.17 219.922 1135.83 219.922C1135.51 219.922 1135.23 219.999 1135 220.152C1134.78 220.304 1134.6 220.52 1134.46 220.797C1134.32 221.068 1134.22 221.391 1134.16 221.766C1134.09 222.134 1134.06 222.537 1134.06 222.974ZM1148.45 228.902C1147.53 228.902 1146.71 228.759 1145.99 228.474C1145.27 228.183 1144.66 227.784 1144.16 227.277C1143.66 226.77 1143.28 226.186 1143.02 225.527C1142.76 224.867 1142.64 224.169 1142.64 223.433V223.037C1142.64 222.211 1142.75 221.447 1142.98 220.745C1143.21 220.037 1143.55 219.419 1144 218.891C1144.45 218.363 1145.02 217.954 1145.7 217.662C1146.38 217.363 1147.17 217.214 1148.07 217.214C1148.87 217.214 1149.59 217.343 1150.22 217.599C1150.85 217.856 1151.39 218.224 1151.82 218.704C1152.27 219.183 1152.6 219.763 1152.83 220.443C1153.07 221.124 1153.19 221.888 1153.19 222.735V224.162H1143.98V221.964H1149.76V221.693C1149.77 221.318 1149.7 220.999 1149.56 220.735C1149.43 220.471 1149.24 220.27 1148.98 220.131C1148.72 219.992 1148.41 219.922 1148.04 219.922C1147.66 219.922 1147.34 220.006 1147.09 220.172C1146.85 220.339 1146.66 220.568 1146.52 220.86C1146.39 221.145 1146.3 221.474 1146.24 221.849C1146.18 222.224 1146.16 222.62 1146.16 223.037V223.433C1146.16 223.849 1146.21 224.228 1146.32 224.568C1146.44 224.909 1146.61 225.2 1146.82 225.443C1147.05 225.679 1147.31 225.863 1147.61 225.995C1147.93 226.127 1148.28 226.193 1148.68 226.193C1149.16 226.193 1149.63 226.103 1150.09 225.922C1150.56 225.742 1150.96 225.443 1151.29 225.027L1152.89 226.922C1152.66 227.249 1152.33 227.565 1151.91 227.87C1151.49 228.176 1150.99 228.426 1150.41 228.62C1149.82 228.808 1149.17 228.902 1148.45 228.902ZM1160.81 223.933V213.527H1164.46V223.933C1164.46 224.947 1164.23 225.825 1163.76 226.568C1163.3 227.311 1162.68 227.888 1161.89 228.297C1161.1 228.7 1160.22 228.902 1159.24 228.902C1158.23 228.902 1157.32 228.731 1156.53 228.391C1155.75 228.051 1155.13 227.527 1154.68 226.818C1154.23 226.11 1154.01 225.207 1154.01 224.11H1157.68C1157.68 224.624 1157.74 225.027 1157.85 225.318C1157.97 225.603 1158.15 225.804 1158.38 225.922C1158.61 226.034 1158.9 226.089 1159.24 226.089C1159.57 226.089 1159.85 226.006 1160.08 225.839C1160.32 225.665 1160.5 225.419 1160.63 225.099C1160.75 224.773 1160.81 224.384 1160.81 223.933ZM1174.59 224.662C1174.59 224.426 1174.56 224.214 1174.49 224.027C1174.42 223.832 1174.29 223.652 1174.1 223.485C1173.92 223.318 1173.65 223.152 1173.29 222.985C1172.94 222.811 1172.49 222.631 1171.92 222.443C1171.25 222.221 1170.61 221.971 1169.99 221.693C1169.37 221.409 1168.82 221.079 1168.33 220.704C1167.85 220.322 1167.46 219.877 1167.18 219.37C1166.89 218.856 1166.75 218.259 1166.75 217.579C1166.75 216.926 1166.9 216.339 1167.19 215.818C1167.48 215.29 1167.89 214.843 1168.41 214.474C1168.93 214.099 1169.55 213.815 1170.26 213.62C1170.97 213.419 1171.74 213.318 1172.58 213.318C1173.69 213.318 1174.67 213.513 1175.52 213.902C1176.38 214.284 1177.04 214.829 1177.52 215.537C1178.01 216.238 1178.25 217.068 1178.25 218.027H1174.61C1174.61 217.645 1174.53 217.308 1174.38 217.016C1174.22 216.724 1173.99 216.495 1173.68 216.329C1173.36 216.162 1172.97 216.079 1172.5 216.079C1172.04 216.079 1171.66 216.148 1171.34 216.287C1171.03 216.426 1170.8 216.613 1170.64 216.849C1170.48 217.079 1170.4 217.332 1170.4 217.61C1170.4 217.839 1170.46 218.047 1170.58 218.235C1170.72 218.415 1170.9 218.586 1171.14 218.745C1171.38 218.905 1171.67 219.058 1172.01 219.204C1172.36 219.349 1172.75 219.492 1173.18 219.631C1173.98 219.888 1174.7 220.176 1175.32 220.495C1175.95 220.808 1176.49 221.165 1176.92 221.568C1177.35 221.964 1177.68 222.415 1177.91 222.922C1178.14 223.429 1178.25 224.002 1178.25 224.641C1178.25 225.322 1178.12 225.926 1177.85 226.454C1177.59 226.981 1177.21 227.429 1176.72 227.797C1176.23 228.159 1175.64 228.433 1174.95 228.62C1174.26 228.808 1173.49 228.902 1172.65 228.902C1171.87 228.902 1171.1 228.804 1170.34 228.61C1169.59 228.409 1168.91 228.103 1168.3 227.693C1167.69 227.277 1167.2 226.745 1166.83 226.099C1166.47 225.447 1166.29 224.672 1166.29 223.777H1169.96C1169.96 224.221 1170.02 224.596 1170.14 224.902C1170.25 225.207 1170.43 225.454 1170.66 225.641C1170.89 225.822 1171.17 225.954 1171.5 226.037C1171.83 226.113 1172.22 226.152 1172.65 226.152C1173.11 226.152 1173.49 226.086 1173.77 225.954C1174.06 225.815 1174.26 225.634 1174.4 225.412C1174.53 225.183 1174.59 224.933 1174.59 224.662Z" fill="white"/>
</svg>
