<svg width="1363" height="301" viewBox="0 0 1363 301" fill="none" xmlns="http://www.w3.org/2000/svg">
<rect width="1363" height="301" rx="15" fill="#F0F0F0"/>
<path d="M0 15C0 6.71573 6.71573 0 15 0H37V301H15C6.71573 301 0 294.284 0 286V15Z" fill="#FE9738"/>
<path d="M110.933 127.376H100.862L100.809 121.2H108.973C110.441 121.2 111.613 121.039 112.491 120.716C113.368 120.376 114.004 119.884 114.397 119.239C114.809 118.595 115.015 117.789 115.015 116.822C115.015 115.712 114.809 114.817 114.397 114.137C113.986 113.456 113.332 112.964 112.437 112.66C111.56 112.337 110.423 112.176 109.026 112.176H104.407V144H94.981V104.898H109.026C111.443 104.898 113.601 105.122 115.499 105.57C117.396 106 119.008 106.662 120.333 107.557C121.675 108.452 122.696 109.58 123.394 110.941C124.092 112.284 124.441 113.868 124.441 115.694C124.441 117.288 124.101 118.783 123.421 120.179C122.741 121.576 121.604 122.713 120.01 123.59C118.435 124.449 116.277 124.897 113.538 124.933L110.933 127.376ZM110.557 144H98.5796L101.802 136.749H110.557C111.846 136.749 112.876 136.552 113.646 136.158C114.433 135.746 114.997 135.209 115.337 134.547C115.695 133.867 115.875 133.115 115.875 132.291C115.875 131.288 115.704 130.42 115.364 129.686C115.042 128.952 114.523 128.388 113.807 127.994C113.09 127.582 112.133 127.376 110.933 127.376H103.011L103.064 121.2H112.544L114.747 123.67C117.361 123.563 119.428 123.93 120.95 124.771C122.49 125.613 123.591 126.723 124.253 128.102C124.916 129.48 125.247 130.921 125.247 132.425C125.247 134.986 124.692 137.125 123.582 138.844C122.49 140.562 120.852 141.852 118.667 142.711C116.483 143.57 113.78 144 110.557 144ZM145.147 136.695V124.718C145.147 123.894 145.031 123.187 144.798 122.596C144.565 122.005 144.198 121.549 143.697 121.227C143.195 120.886 142.524 120.716 141.683 120.716C141.002 120.716 140.42 120.833 139.937 121.065C139.454 121.298 139.087 121.647 138.836 122.113C138.585 122.578 138.46 123.169 138.46 123.885H129.41C129.41 122.542 129.705 121.298 130.296 120.152C130.905 118.989 131.764 117.977 132.874 117.118C134.002 116.258 135.345 115.596 136.902 115.13C138.478 114.647 140.232 114.405 142.166 114.405C144.476 114.405 146.535 114.79 148.343 115.56C150.169 116.33 151.61 117.485 152.667 119.024C153.723 120.546 154.251 122.462 154.251 124.771V136.668C154.251 138.566 154.358 140.007 154.573 140.992C154.788 141.959 155.092 142.809 155.486 143.543V144H146.409C145.979 143.105 145.657 142.013 145.442 140.724C145.245 139.417 145.147 138.074 145.147 136.695ZM146.248 126.249L146.302 131.083H142.3C141.459 131.083 140.743 131.199 140.152 131.432C139.579 131.664 139.113 131.987 138.755 132.398C138.415 132.792 138.165 133.24 138.003 133.741C137.86 134.243 137.789 134.771 137.789 135.326C137.789 135.863 137.914 136.346 138.165 136.776C138.433 137.188 138.791 137.51 139.239 137.743C139.686 137.975 140.188 138.092 140.743 138.092C141.745 138.092 142.596 137.904 143.294 137.528C144.01 137.134 144.556 136.66 144.932 136.104C145.308 135.549 145.496 135.03 145.496 134.547L147.483 138.253C147.125 138.969 146.714 139.694 146.248 140.428C145.8 141.162 145.236 141.843 144.556 142.469C143.894 143.078 143.079 143.579 142.112 143.973C141.146 144.349 139.973 144.537 138.594 144.537C136.804 144.537 135.157 144.17 133.653 143.436C132.167 142.702 130.976 141.681 130.081 140.375C129.186 139.05 128.738 137.528 128.738 135.809C128.738 134.305 129.007 132.962 129.544 131.781C130.099 130.599 130.931 129.597 132.042 128.773C133.152 127.949 134.566 127.323 136.285 126.893C138.003 126.463 140.027 126.249 142.354 126.249H146.248ZM168.162 121.146V144H159.112V114.942H167.598L168.162 121.146ZM167.088 128.478L164.966 128.531C164.966 126.311 165.235 124.333 165.772 122.596C166.309 120.842 167.07 119.356 168.055 118.138C169.039 116.921 170.212 115.999 171.573 115.372C172.951 114.728 174.482 114.405 176.165 114.405C177.508 114.405 178.734 114.602 179.844 114.996C180.972 115.39 181.939 116.026 182.745 116.903C183.568 117.78 184.195 118.944 184.625 120.394C185.072 121.826 185.296 123.599 185.296 125.711V144H176.192V125.685C176.192 124.521 176.031 123.635 175.708 123.026C175.386 122.399 174.921 121.97 174.312 121.737C173.703 121.504 172.96 121.388 172.083 121.388C171.152 121.388 170.364 121.567 169.72 121.925C169.075 122.283 168.556 122.784 168.162 123.429C167.786 124.055 167.509 124.798 167.33 125.658C167.168 126.517 167.088 127.457 167.088 128.478ZM207.022 137.34V102.75H216.126V144H207.962L207.022 137.34ZM189.19 129.82V129.256C189.19 127.054 189.432 125.049 189.915 123.241C190.398 121.415 191.115 119.848 192.063 118.541C193.012 117.216 194.194 116.196 195.608 115.479C197.023 114.763 198.652 114.405 200.496 114.405C202.143 114.405 203.584 114.79 204.82 115.56C206.055 116.312 207.111 117.368 207.989 118.729C208.866 120.09 209.582 121.683 210.137 123.509C210.692 125.318 211.113 127.269 211.399 129.364V130.035C211.113 132.005 210.692 133.867 210.137 135.621C209.582 137.358 208.866 138.897 207.989 140.24C207.111 141.583 206.046 142.639 204.793 143.409C203.558 144.161 202.107 144.537 200.442 144.537C198.598 144.537 196.969 144.17 195.555 143.436C194.158 142.702 192.986 141.673 192.037 140.348C191.106 139.023 190.398 137.465 189.915 135.675C189.432 133.884 189.19 131.933 189.19 129.82ZM198.24 129.256V129.82C198.24 130.912 198.312 131.924 198.455 132.855C198.598 133.786 198.84 134.61 199.18 135.326C199.538 136.024 200.004 136.57 200.577 136.964C201.167 137.358 201.893 137.555 202.752 137.555C203.916 137.555 204.874 137.277 205.625 136.722C206.395 136.167 206.959 135.379 207.317 134.359C207.693 133.338 207.854 132.139 207.801 130.76V128.639C207.837 127.457 207.756 126.419 207.559 125.523C207.362 124.61 207.049 123.849 206.619 123.241C206.207 122.632 205.679 122.175 205.035 121.871C204.408 121.549 203.665 121.388 202.806 121.388C201.964 121.388 201.248 121.585 200.657 121.979C200.084 122.372 199.619 122.927 199.261 123.644C198.903 124.342 198.643 125.174 198.482 126.141C198.321 127.09 198.24 128.128 198.24 129.256ZM256.597 104.898H266.023V130.438C266.023 133.482 265.388 136.06 264.117 138.172C262.846 140.267 261.064 141.852 258.772 142.926C256.481 144 253.786 144.537 250.689 144.537C247.627 144.537 244.933 144 242.605 142.926C240.296 141.852 238.488 140.267 237.181 138.172C235.892 136.06 235.247 133.482 235.247 130.438V104.898H244.7V130.438C244.7 132.049 244.933 133.365 245.398 134.386C245.864 135.388 246.544 136.122 247.439 136.588C248.335 137.053 249.418 137.286 250.689 137.286C251.978 137.286 253.061 137.053 253.938 136.588C254.816 136.122 255.478 135.388 255.926 134.386C256.373 133.365 256.597 132.049 256.597 130.438V104.898ZM280.66 120.528V155.172H271.609V114.942H280.042L280.66 120.528ZM298.492 129.122V129.686C298.492 131.799 298.25 133.759 297.767 135.567C297.283 137.376 296.567 138.951 295.618 140.294C294.669 141.637 293.488 142.684 292.073 143.436C290.677 144.17 289.056 144.537 287.212 144.537C285.476 144.537 283.981 144.152 282.728 143.382C281.474 142.612 280.427 141.547 279.585 140.187C278.744 138.826 278.064 137.268 277.544 135.514C277.025 133.759 276.613 131.906 276.309 129.955V129.229C276.613 127.135 277.025 125.192 277.544 123.402C278.064 121.594 278.744 120.018 279.585 118.675C280.427 117.333 281.465 116.285 282.701 115.533C283.954 114.781 285.449 114.405 287.186 114.405C289.03 114.405 290.65 114.754 292.046 115.453C293.461 116.151 294.642 117.153 295.591 118.46C296.558 119.75 297.283 121.298 297.767 123.106C298.25 124.915 298.492 126.92 298.492 129.122ZM289.441 129.686V129.122C289.441 127.994 289.361 126.965 289.2 126.034C289.039 125.085 288.779 124.261 288.421 123.563C288.081 122.865 287.624 122.328 287.051 121.952C286.478 121.576 285.771 121.388 284.93 121.388C283.963 121.388 283.148 121.54 282.486 121.844C281.841 122.131 281.322 122.578 280.928 123.187C280.552 123.778 280.284 124.521 280.123 125.416C279.979 126.293 279.917 127.323 279.935 128.504V130.707C279.899 132.067 280.033 133.267 280.337 134.305C280.642 135.326 281.17 136.122 281.922 136.695C282.674 137.268 283.694 137.555 284.983 137.555C285.843 137.555 286.559 137.358 287.132 136.964C287.705 136.552 288.161 135.988 288.501 135.272C288.842 134.538 289.083 133.696 289.227 132.748C289.37 131.799 289.441 130.778 289.441 129.686Z" fill="black"/>
<path d="M96.563 55.1172H100.904L107.295 73.3862L113.687 55.1172H118.028L109.039 80H105.552L96.563 55.1172ZM94.2217 55.1172H98.5454L99.3315 72.9248V80H94.2217V55.1172ZM116.045 55.1172H120.386V80H115.259V72.9248L116.045 55.1172ZM129.769 61.5088V80H124.83V61.5088H129.769ZM124.522 56.6895C124.522 55.9717 124.773 55.3792 125.274 54.9121C125.775 54.445 126.447 54.2114 127.291 54.2114C128.122 54.2114 128.789 54.445 129.29 54.9121C129.803 55.3792 130.059 55.9717 130.059 56.6895C130.059 57.4072 129.803 57.9997 129.29 58.4668C128.789 58.9339 128.122 59.1675 127.291 59.1675C126.447 59.1675 125.775 58.9339 125.274 58.4668C124.773 57.9997 124.522 57.4072 124.522 56.6895ZM141.475 76.4966C142.079 76.4966 142.614 76.3826 143.082 76.1548C143.549 75.9155 143.913 75.5851 144.175 75.1636C144.449 74.7306 144.591 74.2236 144.603 73.6426H149.234C149.222 74.9414 148.875 76.0978 148.191 77.1118C147.508 78.1144 146.591 78.9062 145.44 79.4873C144.289 80.057 143.002 80.3418 141.578 80.3418C140.142 80.3418 138.889 80.1025 137.818 79.624C136.758 79.1455 135.875 78.4847 135.169 77.6416C134.463 76.7871 133.933 75.7959 133.58 74.668C133.226 73.5286 133.05 72.3096 133.05 71.0107V70.5151C133.05 69.2049 133.226 67.9858 133.58 66.8579C133.933 65.7186 134.463 64.7274 135.169 63.8843C135.875 63.0298 136.758 62.3633 137.818 61.8848C138.877 61.4062 140.119 61.167 141.543 61.167C143.059 61.167 144.386 61.4575 145.525 62.0386C146.676 62.6196 147.576 63.4513 148.226 64.5337C148.886 65.6047 149.222 66.875 149.234 68.3447H144.603C144.591 67.7295 144.46 67.1712 144.209 66.6699C143.97 66.1686 143.617 65.7699 143.15 65.4736C142.694 65.166 142.13 65.0122 141.458 65.0122C140.74 65.0122 140.153 65.166 139.698 65.4736C139.242 65.7699 138.889 66.18 138.638 66.7041C138.388 67.2168 138.211 67.8035 138.108 68.4644C138.017 69.1138 137.972 69.7974 137.972 70.5151V71.0107C137.972 71.7285 138.017 72.4178 138.108 73.0786C138.2 73.7394 138.37 74.3262 138.621 74.8389C138.883 75.3516 139.242 75.756 139.698 76.0522C140.153 76.3485 140.746 76.4966 141.475 76.4966ZM156.89 53.75V80H151.968V53.75H156.89ZM156.189 70.105H154.839C154.851 68.8175 155.022 67.6326 155.352 66.5503C155.682 65.4565 156.155 64.5109 156.771 63.7134C157.386 62.9045 158.121 62.2778 158.975 61.8335C159.841 61.3892 160.798 61.167 161.846 61.167C162.758 61.167 163.584 61.298 164.324 61.5601C165.076 61.8107 165.72 62.2209 166.255 62.7905C166.802 63.3488 167.224 64.0837 167.52 64.9951C167.816 65.9066 167.964 67.0117 167.964 68.3105V80H163.008V68.2764C163.008 67.4561 162.889 66.8123 162.649 66.3452C162.422 65.8667 162.085 65.5306 161.641 65.3369C161.208 65.1318 160.673 65.0293 160.035 65.0293C159.328 65.0293 158.724 65.1603 158.223 65.4224C157.733 65.6844 157.34 66.049 157.044 66.5161C156.748 66.9718 156.531 67.5073 156.395 68.1226C156.258 68.7378 156.189 69.3986 156.189 70.105ZM180.218 80.3418C178.782 80.3418 177.495 80.1139 176.355 79.6582C175.216 79.1911 174.248 78.5474 173.45 77.7271C172.664 76.9067 172.06 75.9554 171.639 74.873C171.217 73.7793 171.006 72.6172 171.006 71.3867V70.7031C171.006 69.3018 171.206 68.02 171.604 66.8579C172.003 65.6958 172.573 64.6875 173.313 63.833C174.065 62.9785 174.977 62.3234 176.048 61.8677C177.119 61.4006 178.326 61.167 179.671 61.167C180.981 61.167 182.143 61.3835 183.157 61.8164C184.171 62.2493 185.02 62.8646 185.704 63.6621C186.399 64.4596 186.923 65.4167 187.276 66.5332C187.629 67.6383 187.806 68.8688 187.806 70.2246V72.2754H173.108V68.9941H182.969V68.6182C182.969 67.9346 182.844 67.325 182.593 66.7896C182.354 66.2427 181.989 65.8097 181.5 65.4907C181.01 65.1717 180.383 65.0122 179.62 65.0122C178.97 65.0122 178.412 65.1546 177.945 65.4395C177.478 65.7243 177.096 66.123 176.8 66.6357C176.515 67.1484 176.299 67.7523 176.15 68.4473C176.014 69.1309 175.945 69.8828 175.945 70.7031V71.3867C175.945 72.1273 176.048 72.8109 176.253 73.4375C176.469 74.0641 176.771 74.6053 177.159 75.061C177.557 75.5168 178.036 75.87 178.594 76.1206C179.164 76.3713 179.808 76.4966 180.525 76.4966C181.414 76.4966 182.24 76.3257 183.003 75.9839C183.778 75.6307 184.445 75.1009 185.003 74.3945L187.396 76.9922C187.008 77.5505 186.478 78.0859 185.806 78.5986C185.145 79.1113 184.348 79.5329 183.414 79.8633C182.479 80.1823 181.414 80.3418 180.218 80.3418ZM195.804 53.75V80H190.865V53.75H195.804ZM225.489 65.2515V69.2505H212.5V65.2515H225.489ZM214.021 55.1172V80H208.895V55.1172H214.021ZM229.146 55.1172V80H224.036V55.1172H229.146ZM243.279 75.8301V67.5928C243.279 67.0003 243.182 66.4933 242.989 66.0718C242.795 65.6388 242.493 65.3027 242.083 65.0635C241.684 64.8242 241.166 64.7046 240.528 64.7046C239.981 64.7046 239.508 64.8014 239.109 64.9951C238.711 65.1774 238.403 65.4451 238.187 65.7983C237.97 66.1401 237.862 66.5446 237.862 67.0117H232.94C232.94 66.2256 233.122 65.4793 233.487 64.7729C233.851 64.0666 234.381 63.4456 235.076 62.9102C235.771 62.3633 236.597 61.936 237.554 61.6284C238.523 61.3208 239.605 61.167 240.801 61.167C242.237 61.167 243.513 61.4062 244.629 61.8848C245.746 62.3633 246.623 63.0811 247.261 64.0381C247.911 64.9951 248.235 66.1914 248.235 67.627V75.5396C248.235 76.5535 248.298 77.3853 248.423 78.0347C248.549 78.6727 248.731 79.231 248.97 79.7095V80H243.997C243.758 79.4987 243.576 78.8721 243.45 78.1201C243.336 77.3568 243.279 76.5934 243.279 75.8301ZM243.929 68.7378L243.963 71.5234H241.211C240.562 71.5234 239.998 71.5975 239.52 71.7456C239.041 71.8937 238.648 72.1045 238.34 72.3779C238.033 72.64 237.805 72.9476 237.657 73.3008C237.52 73.654 237.452 74.0413 237.452 74.4629C237.452 74.8844 237.549 75.2661 237.742 75.6079C237.936 75.9383 238.215 76.2004 238.58 76.394C238.944 76.5763 239.371 76.6675 239.861 76.6675C240.602 76.6675 241.246 76.5194 241.792 76.2231C242.339 75.9269 242.761 75.5623 243.057 75.1294C243.365 74.6965 243.524 74.2863 243.536 73.8989L244.834 75.9839C244.652 76.451 244.402 76.9352 244.083 77.4365C243.775 77.9378 243.382 78.4106 242.903 78.855C242.425 79.2879 241.849 79.6468 241.177 79.9316C240.505 80.2051 239.708 80.3418 238.785 80.3418C237.611 80.3418 236.546 80.1082 235.589 79.6411C234.643 79.1626 233.891 78.5075 233.333 77.6758C232.786 76.8327 232.513 75.8757 232.513 74.8047C232.513 73.8363 232.695 72.9761 233.06 72.2241C233.424 71.4722 233.96 70.8398 234.666 70.3271C235.384 69.8031 236.278 69.41 237.349 69.1479C238.42 68.8745 239.662 68.7378 241.075 68.7378H243.929ZM262.95 75.9668V53.75H267.906V80H263.445L262.95 75.9668ZM251.26 70.9766V70.6177C251.26 69.2049 251.42 67.9232 251.739 66.7725C252.058 65.6104 252.525 64.6134 253.14 63.7817C253.755 62.95 254.513 62.3063 255.413 61.8506C256.313 61.3949 257.339 61.167 258.489 61.167C259.572 61.167 260.517 61.3949 261.326 61.8506C262.146 62.3063 262.841 62.9557 263.411 63.7988C263.992 64.6305 264.459 65.616 264.812 66.7554C265.166 67.8833 265.422 69.1195 265.582 70.4639V71.25C265.422 72.5374 265.166 73.7337 264.812 74.8389C264.459 75.944 263.992 76.9124 263.411 77.7441C262.841 78.5645 262.146 79.2025 261.326 79.6582C260.506 80.1139 259.549 80.3418 258.455 80.3418C257.304 80.3418 256.279 80.1082 255.379 79.6411C254.49 79.174 253.738 78.5189 253.123 77.6758C252.519 76.8327 252.058 75.8415 251.739 74.7021C251.42 73.5628 251.26 72.321 251.26 70.9766ZM256.182 70.6177V70.9766C256.182 71.7399 256.239 72.452 256.353 73.1128C256.478 73.7736 256.678 74.3604 256.951 74.873C257.236 75.3743 257.601 75.7674 258.045 76.0522C258.501 76.3257 259.053 76.4624 259.703 76.4624C260.546 76.4624 261.241 76.2744 261.788 75.8984C262.334 75.5111 262.75 74.9813 263.035 74.3091C263.331 73.6369 263.502 72.8621 263.548 71.9849V69.7461C263.514 69.0283 263.411 68.3846 263.24 67.8149C263.081 67.2339 262.841 66.7383 262.522 66.3281C262.215 65.918 261.827 65.599 261.36 65.3711C260.905 65.1432 260.363 65.0293 259.737 65.0293C259.099 65.0293 258.552 65.1774 258.096 65.4736C257.64 65.7585 257.27 66.1515 256.985 66.6528C256.712 67.1541 256.507 67.7466 256.37 68.4302C256.245 69.1024 256.182 69.8315 256.182 70.6177ZM282.671 75.9668V53.75H287.627V80H283.167L282.671 75.9668ZM270.982 70.9766V70.6177C270.982 69.2049 271.141 67.9232 271.46 66.7725C271.779 65.6104 272.247 64.6134 272.862 63.7817C273.477 62.95 274.235 62.3063 275.135 61.8506C276.035 61.3949 277.06 61.167 278.211 61.167C279.293 61.167 280.239 61.3949 281.048 61.8506C281.868 62.3063 282.563 62.9557 283.133 63.7988C283.714 64.6305 284.181 65.616 284.534 66.7554C284.887 67.8833 285.144 69.1195 285.303 70.4639V71.25C285.144 72.5374 284.887 73.7337 284.534 74.8389C284.181 75.944 283.714 76.9124 283.133 77.7441C282.563 78.5645 281.868 79.2025 281.048 79.6582C280.228 80.1139 279.271 80.3418 278.177 80.3418C277.026 80.3418 276.001 80.1082 275.101 79.6411C274.212 79.174 273.46 78.5189 272.845 77.6758C272.241 76.8327 271.779 75.8415 271.46 74.7021C271.141 73.5628 270.982 72.321 270.982 70.9766ZM275.904 70.6177V70.9766C275.904 71.7399 275.961 72.452 276.075 73.1128C276.2 73.7736 276.399 74.3604 276.673 74.873C276.958 75.3743 277.322 75.7674 277.767 76.0522C278.222 76.3257 278.775 76.4624 279.424 76.4624C280.267 76.4624 280.962 76.2744 281.509 75.8984C282.056 75.5111 282.472 74.9813 282.757 74.3091C283.053 73.6369 283.224 72.8621 283.27 71.9849V69.7461C283.235 69.0283 283.133 68.3846 282.962 67.8149C282.802 67.2339 282.563 66.7383 282.244 66.3281C281.937 65.918 281.549 65.599 281.082 65.3711C280.626 65.1432 280.085 65.0293 279.458 65.0293C278.82 65.0293 278.274 65.1774 277.818 65.4736C277.362 65.7585 276.992 66.1515 276.707 66.6528C276.434 67.1541 276.229 67.7466 276.092 68.4302C275.966 69.1024 275.904 69.8315 275.904 70.6177ZM301.453 75.8301V67.5928C301.453 67.0003 301.356 66.4933 301.163 66.0718C300.969 65.6388 300.667 65.3027 300.257 65.0635C299.858 64.8242 299.34 64.7046 298.702 64.7046C298.155 64.7046 297.682 64.8014 297.283 64.9951C296.884 65.1774 296.577 65.4451 296.36 65.7983C296.144 66.1401 296.036 66.5446 296.036 67.0117H291.114C291.114 66.2256 291.296 65.4793 291.661 64.7729C292.025 64.0666 292.555 63.4456 293.25 62.9102C293.945 62.3633 294.771 61.936 295.728 61.6284C296.696 61.3208 297.779 61.167 298.975 61.167C300.411 61.167 301.687 61.4062 302.803 61.8848C303.92 62.3633 304.797 63.0811 305.435 64.0381C306.084 64.9951 306.409 66.1914 306.409 67.627V75.5396C306.409 76.5535 306.472 77.3853 306.597 78.0347C306.722 78.6727 306.905 79.231 307.144 79.7095V80H302.171C301.932 79.4987 301.749 78.8721 301.624 78.1201C301.51 77.3568 301.453 76.5934 301.453 75.8301ZM302.103 68.7378L302.137 71.5234H299.385C298.736 71.5234 298.172 71.5975 297.693 71.7456C297.215 71.8937 296.822 72.1045 296.514 72.3779C296.207 72.64 295.979 72.9476 295.831 73.3008C295.694 73.654 295.625 74.0413 295.625 74.4629C295.625 74.8844 295.722 75.2661 295.916 75.6079C296.11 75.9383 296.389 76.2004 296.753 76.394C297.118 76.5763 297.545 76.6675 298.035 76.6675C298.776 76.6675 299.419 76.5194 299.966 76.2231C300.513 75.9269 300.935 75.5623 301.231 75.1294C301.539 74.6965 301.698 74.2863 301.709 73.8989L303.008 75.9839C302.826 76.451 302.575 76.9352 302.256 77.4365C301.949 77.9378 301.556 78.4106 301.077 78.855C300.599 79.2879 300.023 79.6468 299.351 79.9316C298.679 80.2051 297.881 80.3418 296.958 80.3418C295.785 80.3418 294.72 80.1082 293.763 79.6411C292.817 79.1626 292.065 78.5075 291.507 77.6758C290.96 76.8327 290.687 75.8757 290.687 74.8047C290.687 73.8363 290.869 72.9761 291.233 72.2241C291.598 71.4722 292.133 70.8398 292.84 70.3271C293.558 69.8031 294.452 69.41 295.523 69.1479C296.594 68.8745 297.836 68.7378 299.249 68.7378H302.103ZM321.124 75.9668V53.75H326.08V80H321.619L321.124 75.9668ZM309.434 70.9766V70.6177C309.434 69.2049 309.594 67.9232 309.913 66.7725C310.232 65.6104 310.699 64.6134 311.314 63.7817C311.929 62.95 312.687 62.3063 313.587 61.8506C314.487 61.3949 315.512 61.167 316.663 61.167C317.745 61.167 318.691 61.3949 319.5 61.8506C320.32 62.3063 321.015 62.9557 321.585 63.7988C322.166 64.6305 322.633 65.616 322.986 66.7554C323.34 67.8833 323.596 69.1195 323.755 70.4639V71.25C323.596 72.5374 323.34 73.7337 322.986 74.8389C322.633 75.944 322.166 76.9124 321.585 77.7441C321.015 78.5645 320.32 79.2025 319.5 79.6582C318.68 80.1139 317.723 80.3418 316.629 80.3418C315.478 80.3418 314.453 80.1082 313.553 79.6411C312.664 79.174 311.912 78.5189 311.297 77.6758C310.693 76.8327 310.232 75.8415 309.913 74.7021C309.594 73.5628 309.434 72.321 309.434 70.9766ZM314.356 70.6177V70.9766C314.356 71.7399 314.413 72.452 314.527 73.1128C314.652 73.7736 314.852 74.3604 315.125 74.873C315.41 75.3743 315.774 75.7674 316.219 76.0522C316.674 76.3257 317.227 76.4624 317.876 76.4624C318.72 76.4624 319.415 76.2744 319.961 75.8984C320.508 75.5111 320.924 74.9813 321.209 74.3091C321.505 73.6369 321.676 72.8621 321.722 71.9849V69.7461C321.688 69.0283 321.585 68.3846 321.414 67.8149C321.255 67.2339 321.015 66.7383 320.696 66.3281C320.389 65.918 320.001 65.599 319.534 65.3711C319.078 65.1432 318.537 65.0293 317.911 65.0293C317.273 65.0293 316.726 65.1774 316.27 65.4736C315.814 65.7585 315.444 66.1515 315.159 66.6528C314.886 67.1541 314.681 67.7466 314.544 68.4302C314.419 69.1024 314.356 69.8315 314.356 70.6177Z" fill="#888888"/>
<rect x="92" y="181" width="1179" height="80" rx="13.3333" fill="#CCCCCC"/>
<rect x="107" y="196.334" width="208" height="49.3333" rx="4.66667" fill="#888888" stroke="#888888" stroke-width="4"/>
<path d="M166.656 213.167H169.635L173.021 223.72L176.406 213.167H179.385L174.229 228.334H171.813L166.656 213.167ZM164.844 213.167H167.927L168.5 224.792V228.334H164.844V213.167ZM178.115 213.167H181.208V228.334H177.542V224.792L178.115 213.167ZM182.948 222.813V222.595C182.948 221.768 183.066 221.008 183.302 220.313C183.538 219.612 183.885 219.004 184.344 218.49C184.802 217.976 185.368 217.577 186.042 217.292C186.715 217.001 187.493 216.855 188.375 216.855C189.264 216.855 190.045 217.001 190.719 217.292C191.399 217.577 191.969 217.976 192.427 218.49C192.885 219.004 193.233 219.612 193.469 220.313C193.705 221.008 193.823 221.768 193.823 222.595V222.813C193.823 223.633 193.705 224.393 193.469 225.095C193.233 225.789 192.885 226.397 192.427 226.917C191.969 227.431 191.403 227.831 190.729 228.115C190.056 228.4 189.278 228.542 188.396 228.542C187.514 228.542 186.733 228.4 186.052 228.115C185.372 227.831 184.802 227.431 184.344 226.917C183.885 226.397 183.538 225.789 183.302 225.095C183.066 224.393 182.948 223.633 182.948 222.813ZM186.458 222.595V222.813C186.458 223.237 186.49 223.633 186.552 224.001C186.615 224.369 186.719 224.692 186.865 224.97C187.01 225.24 187.208 225.452 187.458 225.605C187.708 225.758 188.021 225.834 188.396 225.834C188.764 225.834 189.069 225.758 189.313 225.605C189.563 225.452 189.76 225.24 189.906 224.97C190.052 224.692 190.156 224.369 190.219 224.001C190.281 223.633 190.313 223.237 190.313 222.813V222.595C190.313 222.185 190.281 221.799 190.219 221.438C190.156 221.07 190.052 220.747 189.906 220.47C189.76 220.185 189.563 219.963 189.313 219.803C189.063 219.643 188.75 219.563 188.375 219.563C188.007 219.563 187.698 219.643 187.448 219.803C187.205 219.963 187.01 220.185 186.865 220.47C186.719 220.747 186.615 221.07 186.552 221.438C186.49 221.799 186.458 222.185 186.458 222.595ZM198.833 219.47V228.334H195.323V217.063H198.615L198.833 219.47ZM198.417 222.313L197.594 222.334C197.594 221.473 197.698 220.706 197.906 220.032C198.115 219.351 198.41 218.775 198.792 218.303C199.174 217.831 199.628 217.473 200.156 217.23C200.691 216.98 201.285 216.855 201.938 216.855C202.458 216.855 202.934 216.931 203.365 217.084C203.802 217.237 204.177 217.483 204.49 217.824C204.809 218.164 205.052 218.615 205.219 219.178C205.392 219.733 205.479 220.421 205.479 221.24V228.334H201.948V221.23C201.948 220.779 201.885 220.435 201.76 220.199C201.635 219.956 201.455 219.789 201.219 219.699C200.983 219.608 200.694 219.563 200.354 219.563C199.993 219.563 199.688 219.633 199.438 219.772C199.188 219.91 198.986 220.105 198.833 220.355C198.688 220.598 198.58 220.886 198.51 221.22C198.448 221.553 198.417 221.917 198.417 222.313ZM214.51 217.063H217.698V227.897C217.698 228.938 217.458 229.82 216.979 230.542C216.5 231.272 215.83 231.824 214.969 232.199C214.115 232.581 213.115 232.772 211.969 232.772C211.462 232.772 210.944 232.706 210.417 232.574C209.889 232.449 209.396 232.261 208.938 232.011C208.479 231.761 208.094 231.452 207.781 231.084L209.25 229.022C209.535 229.341 209.892 229.612 210.323 229.834C210.753 230.063 211.26 230.178 211.844 230.178C212.351 230.178 212.774 230.088 213.115 229.907C213.462 229.726 213.726 229.463 213.906 229.115C214.087 228.775 214.177 228.362 214.177 227.876V219.73L214.51 217.063ZM207.021 222.834V222.615C207.021 221.761 207.125 220.983 207.333 220.282C207.549 219.574 207.854 218.966 208.25 218.459C208.653 217.945 209.139 217.549 209.708 217.272C210.278 216.994 210.92 216.855 211.635 216.855C212.406 216.855 213.038 217.004 213.531 217.303C214.031 217.595 214.431 218.004 214.729 218.532C215.035 219.06 215.271 219.678 215.438 220.386C215.611 221.088 215.757 221.845 215.875 222.657V222.917C215.757 223.681 215.594 224.404 215.385 225.084C215.184 225.758 214.92 226.355 214.594 226.876C214.267 227.397 213.858 227.806 213.365 228.105C212.878 228.397 212.295 228.542 211.615 228.542C210.906 228.542 210.267 228.4 209.698 228.115C209.135 227.831 208.653 227.431 208.25 226.917C207.854 226.404 207.549 225.799 207.333 225.105C207.125 224.41 207.021 223.654 207.021 222.834ZM210.531 222.615V222.834C210.531 223.258 210.569 223.65 210.646 224.011C210.729 224.372 210.854 224.692 211.021 224.97C211.188 225.24 211.392 225.452 211.635 225.605C211.885 225.758 212.177 225.834 212.51 225.834C213.017 225.834 213.427 225.726 213.74 225.511C214.052 225.296 214.278 224.99 214.417 224.595C214.556 224.199 214.615 223.733 214.594 223.199V222.376C214.608 221.917 214.576 221.515 214.5 221.167C214.424 220.813 214.302 220.518 214.135 220.282C213.976 220.046 213.76 219.869 213.49 219.751C213.226 219.626 212.906 219.563 212.531 219.563C212.205 219.563 211.917 219.64 211.667 219.792C211.417 219.945 211.208 220.16 211.042 220.438C210.875 220.709 210.747 221.032 210.656 221.407C210.573 221.775 210.531 222.178 210.531 222.615ZM219.281 222.813V222.595C219.281 221.768 219.399 221.008 219.635 220.313C219.872 219.612 220.219 219.004 220.677 218.49C221.135 217.976 221.701 217.577 222.375 217.292C223.049 217.001 223.826 216.855 224.708 216.855C225.597 216.855 226.378 217.001 227.052 217.292C227.733 217.577 228.302 217.976 228.76 218.49C229.219 219.004 229.566 219.612 229.802 220.313C230.038 221.008 230.156 221.768 230.156 222.595V222.813C230.156 223.633 230.038 224.393 229.802 225.095C229.566 225.789 229.219 226.397 228.76 226.917C228.302 227.431 227.736 227.831 227.063 228.115C226.389 228.4 225.611 228.542 224.729 228.542C223.847 228.542 223.066 228.4 222.385 228.115C221.705 227.831 221.135 227.431 220.677 226.917C220.219 226.397 219.872 225.789 219.635 225.095C219.399 224.393 219.281 223.633 219.281 222.813ZM222.792 222.595V222.813C222.792 223.237 222.823 223.633 222.885 224.001C222.948 224.369 223.052 224.692 223.198 224.97C223.344 225.24 223.542 225.452 223.792 225.605C224.042 225.758 224.354 225.834 224.729 225.834C225.097 225.834 225.403 225.758 225.646 225.605C225.896 225.452 226.094 225.24 226.24 224.97C226.385 224.692 226.49 224.369 226.552 224.001C226.615 223.633 226.646 223.237 226.646 222.813V222.595C226.646 222.185 226.615 221.799 226.552 221.438C226.49 221.07 226.385 220.747 226.24 220.47C226.094 220.185 225.896 219.963 225.646 219.803C225.396 219.643 225.083 219.563 224.708 219.563C224.34 219.563 224.031 219.643 223.781 219.803C223.538 219.963 223.344 220.185 223.198 220.47C223.052 220.747 222.948 221.07 222.885 221.438C222.823 221.799 222.792 222.185 222.792 222.595ZM236.813 228.334H233.448L233.469 225.522H236.813C237.507 225.522 238.094 225.355 238.573 225.022C239.059 224.688 239.427 224.192 239.677 223.532C239.934 222.865 240.063 222.046 240.063 221.074V220.417C240.063 219.688 239.99 219.049 239.844 218.501C239.705 217.945 239.497 217.483 239.219 217.115C238.941 216.74 238.594 216.459 238.177 216.272C237.767 216.084 237.295 215.99 236.76 215.99H233.385V213.167H236.76C237.788 213.167 238.729 213.345 239.583 213.699C240.444 214.046 241.188 214.546 241.813 215.199C242.444 215.845 242.931 216.612 243.271 217.501C243.618 218.383 243.792 219.362 243.792 220.438V221.074C243.792 222.143 243.618 223.122 243.271 224.011C242.931 224.9 242.448 225.667 241.823 226.313C241.198 226.959 240.458 227.459 239.604 227.813C238.757 228.16 237.826 228.334 236.813 228.334ZM235.542 213.167V228.334H231.885V213.167H235.542ZM251.885 221.886H247.979L247.958 219.49H251.125C251.694 219.49 252.149 219.428 252.49 219.303C252.83 219.171 253.076 218.98 253.229 218.73C253.389 218.48 253.469 218.167 253.469 217.792C253.469 217.362 253.389 217.015 253.229 216.751C253.069 216.487 252.816 216.296 252.469 216.178C252.128 216.053 251.688 215.99 251.146 215.99H249.354V228.334H245.698V213.167H251.146C252.083 213.167 252.92 213.254 253.656 213.428C254.392 213.595 255.017 213.851 255.531 214.199C256.052 214.546 256.448 214.983 256.719 215.511C256.99 216.032 257.125 216.647 257.125 217.355C257.125 217.973 256.993 218.553 256.729 219.095C256.465 219.636 256.024 220.077 255.406 220.417C254.795 220.751 253.958 220.924 252.896 220.938L251.885 221.886ZM251.74 228.334H247.094L248.344 225.522H251.74C252.24 225.522 252.639 225.445 252.938 225.292C253.243 225.133 253.462 224.924 253.594 224.667C253.733 224.404 253.802 224.112 253.802 223.792C253.802 223.404 253.736 223.067 253.604 222.782C253.479 222.497 253.278 222.279 253 222.126C252.722 221.966 252.351 221.886 251.885 221.886H248.813L248.833 219.49H252.51L253.365 220.449C254.378 220.407 255.181 220.549 255.771 220.876C256.368 221.202 256.795 221.633 257.052 222.167C257.309 222.702 257.438 223.261 257.438 223.845C257.438 224.838 257.222 225.667 256.792 226.334C256.368 227.001 255.733 227.501 254.885 227.834C254.038 228.167 252.99 228.334 251.74 228.334Z" fill="white"/>
<rect x="339" y="196.334" width="208" height="49.3333" rx="4.66667" fill="#888888" stroke="#888888" stroke-width="4"/>
<path d="M416.427 225.522V228.334H408.344V225.522H416.427ZM409.646 213.167V228.334H405.99V213.167H409.646ZM415.385 219.188V221.907H408.344V219.188H415.385ZM416.458 213.167V215.99H408.344V213.167H416.458ZM420.74 217.063L422.323 220.167L423.958 217.063H427.604L424.646 222.553L427.76 228.334H424.083L422.323 225.001L420.573 228.334H416.896L420.01 222.553L417.062 217.063H420.74ZM432.302 219.23V232.667H428.792V217.063H432.062L432.302 219.23ZM439.219 222.563V222.782C439.219 223.601 439.125 224.362 438.937 225.063C438.75 225.765 438.472 226.376 438.104 226.897C437.736 227.417 437.278 227.824 436.729 228.115C436.187 228.4 435.559 228.542 434.844 228.542C434.17 228.542 433.59 228.393 433.104 228.095C432.618 227.796 432.212 227.383 431.885 226.855C431.559 226.327 431.295 225.723 431.094 225.042C430.892 224.362 430.733 223.643 430.615 222.886V222.605C430.733 221.792 430.892 221.039 431.094 220.345C431.295 219.643 431.559 219.032 431.885 218.511C432.212 217.99 432.615 217.584 433.094 217.292C433.58 217.001 434.16 216.855 434.833 216.855C435.549 216.855 436.177 216.99 436.719 217.261C437.267 217.532 437.726 217.921 438.094 218.428C438.469 218.928 438.75 219.529 438.937 220.23C439.125 220.931 439.219 221.709 439.219 222.563ZM435.708 222.782V222.563C435.708 222.126 435.677 221.726 435.615 221.365C435.552 220.997 435.451 220.678 435.312 220.407C435.181 220.136 435.003 219.928 434.781 219.782C434.559 219.636 434.285 219.563 433.958 219.563C433.583 219.563 433.267 219.622 433.01 219.74C432.76 219.851 432.559 220.025 432.406 220.261C432.26 220.49 432.156 220.779 432.094 221.126C432.038 221.466 432.014 221.865 432.021 222.324V223.178C432.007 223.706 432.059 224.171 432.177 224.574C432.295 224.97 432.5 225.279 432.792 225.501C433.083 225.723 433.479 225.834 433.979 225.834C434.312 225.834 434.59 225.758 434.812 225.605C435.035 225.445 435.212 225.226 435.344 224.949C435.476 224.664 435.569 224.338 435.625 223.97C435.681 223.601 435.708 223.206 435.708 222.782ZM444.323 219.855V228.334H440.812V217.063H444.094L444.323 219.855ZM447.656 216.98L447.594 220.24C447.455 220.226 447.267 220.209 447.031 220.188C446.795 220.167 446.597 220.157 446.437 220.157C446.028 220.157 445.674 220.206 445.375 220.303C445.083 220.393 444.84 220.532 444.646 220.72C444.458 220.9 444.319 221.129 444.229 221.407C444.146 221.685 444.108 222.008 444.115 222.376L443.479 221.959C443.479 221.202 443.552 220.515 443.698 219.897C443.851 219.272 444.066 218.733 444.344 218.282C444.622 217.824 444.958 217.473 445.354 217.23C445.75 216.98 446.194 216.855 446.687 216.855C446.861 216.855 447.031 216.865 447.198 216.886C447.372 216.907 447.524 216.938 447.656 216.98ZM454.115 228.542C453.198 228.542 452.378 228.4 451.656 228.115C450.934 227.824 450.323 227.424 449.823 226.917C449.33 226.41 448.951 225.827 448.687 225.167C448.431 224.508 448.302 223.81 448.302 223.074V222.678C448.302 221.851 448.417 221.088 448.646 220.386C448.875 219.678 449.215 219.06 449.667 218.532C450.118 218.004 450.684 217.595 451.365 217.303C452.045 217.004 452.837 216.855 453.74 216.855C454.538 216.855 455.253 216.983 455.885 217.24C456.517 217.497 457.052 217.865 457.49 218.345C457.934 218.824 458.271 219.404 458.5 220.084C458.736 220.765 458.854 221.529 458.854 222.376V223.803H449.646V221.605H455.427V221.334C455.434 220.959 455.368 220.64 455.229 220.376C455.097 220.112 454.903 219.91 454.646 219.772C454.389 219.633 454.076 219.563 453.708 219.563C453.326 219.563 453.01 219.647 452.76 219.813C452.517 219.98 452.326 220.209 452.187 220.501C452.056 220.785 451.962 221.115 451.906 221.49C451.851 221.865 451.823 222.261 451.823 222.678V223.074C451.823 223.49 451.878 223.869 451.99 224.209C452.108 224.549 452.274 224.841 452.49 225.084C452.712 225.32 452.976 225.504 453.281 225.636C453.594 225.768 453.948 225.834 454.344 225.834C454.823 225.834 455.295 225.744 455.76 225.563C456.226 225.383 456.625 225.084 456.958 224.667L458.552 226.563C458.323 226.89 457.997 227.206 457.573 227.511C457.156 227.817 456.656 228.067 456.073 228.261C455.49 228.449 454.837 228.542 454.115 228.542ZM466.187 225.167C466.187 224.973 466.122 224.806 465.99 224.667C465.865 224.522 465.642 224.39 465.323 224.272C465.003 224.147 464.556 224.022 463.979 223.897C463.431 223.779 462.913 223.622 462.427 223.428C461.948 223.233 461.528 222.997 461.167 222.72C460.806 222.442 460.521 222.112 460.312 221.73C460.111 221.348 460.01 220.91 460.01 220.417C460.01 219.938 460.111 219.487 460.312 219.063C460.521 218.633 460.823 218.254 461.219 217.928C461.622 217.595 462.111 217.334 462.687 217.147C463.264 216.952 463.92 216.855 464.656 216.855C465.67 216.855 466.545 217.011 467.281 217.324C468.017 217.629 468.583 218.06 468.979 218.615C469.382 219.164 469.583 219.799 469.583 220.522H466.073C466.073 220.237 466.024 219.994 465.927 219.792C465.837 219.591 465.687 219.438 465.479 219.334C465.271 219.223 464.993 219.167 464.646 219.167C464.403 219.167 464.181 219.213 463.979 219.303C463.785 219.393 463.628 219.518 463.51 219.678C463.392 219.838 463.333 220.025 463.333 220.24C463.333 220.393 463.368 220.532 463.437 220.657C463.514 220.775 463.628 220.886 463.781 220.99C463.934 221.088 464.128 221.178 464.365 221.261C464.601 221.338 464.885 221.407 465.219 221.47C465.976 221.608 466.684 221.806 467.344 222.063C468.003 222.32 468.538 222.685 468.948 223.157C469.365 223.629 469.573 224.265 469.573 225.063C469.573 225.563 469.458 226.025 469.229 226.449C469 226.865 468.67 227.233 468.24 227.553C467.809 227.865 467.292 228.108 466.687 228.282C466.083 228.456 465.403 228.542 464.646 228.542C463.569 228.542 462.66 228.351 461.917 227.97C461.174 227.581 460.611 227.095 460.229 226.511C459.854 225.921 459.667 225.324 459.667 224.72H462.937C462.951 225.067 463.035 225.351 463.187 225.574C463.347 225.796 463.559 225.959 463.823 226.063C464.087 226.167 464.392 226.22 464.74 226.22C465.059 226.22 465.323 226.174 465.531 226.084C465.747 225.994 465.91 225.872 466.021 225.72C466.132 225.56 466.187 225.376 466.187 225.167ZM477.125 225.167C477.125 224.973 477.059 224.806 476.927 224.667C476.802 224.522 476.58 224.39 476.26 224.272C475.941 224.147 475.493 224.022 474.917 223.897C474.368 223.779 473.851 223.622 473.365 223.428C472.885 223.233 472.465 222.997 472.104 222.72C471.743 222.442 471.458 222.112 471.25 221.73C471.049 221.348 470.948 220.91 470.948 220.417C470.948 219.938 471.049 219.487 471.25 219.063C471.458 218.633 471.76 218.254 472.156 217.928C472.559 217.595 473.049 217.334 473.625 217.147C474.201 216.952 474.858 216.855 475.594 216.855C476.608 216.855 477.483 217.011 478.219 217.324C478.955 217.629 479.521 218.06 479.917 218.615C480.319 219.164 480.521 219.799 480.521 220.522H477.01C477.01 220.237 476.962 219.994 476.865 219.792C476.774 219.591 476.625 219.438 476.417 219.334C476.208 219.223 475.931 219.167 475.583 219.167C475.34 219.167 475.118 219.213 474.917 219.303C474.722 219.393 474.566 219.518 474.448 219.678C474.33 219.838 474.271 220.025 474.271 220.24C474.271 220.393 474.306 220.532 474.375 220.657C474.451 220.775 474.566 220.886 474.719 220.99C474.872 221.088 475.066 221.178 475.302 221.261C475.538 221.338 475.823 221.407 476.156 221.47C476.913 221.608 477.622 221.806 478.281 222.063C478.941 222.32 479.476 222.685 479.885 223.157C480.302 223.629 480.51 224.265 480.51 225.063C480.51 225.563 480.396 226.025 480.167 226.449C479.937 226.865 479.608 227.233 479.177 227.553C478.747 227.865 478.229 228.108 477.625 228.282C477.021 228.456 476.34 228.542 475.583 228.542C474.507 228.542 473.597 228.351 472.854 227.97C472.111 227.581 471.549 227.095 471.167 226.511C470.792 225.921 470.604 225.324 470.604 224.72H473.875C473.889 225.067 473.972 225.351 474.125 225.574C474.285 225.796 474.497 225.959 474.76 226.063C475.024 226.167 475.33 226.22 475.677 226.22C475.997 226.22 476.26 226.174 476.469 226.084C476.684 225.994 476.847 225.872 476.958 225.72C477.069 225.56 477.125 225.376 477.125 225.167Z" fill="white"/>
<rect x="571" y="196.22" width="208" height="49.3333" rx="4.66667" fill="#888888" stroke="#888888" stroke-width="4"/>
<path d="M614.833 213.054H620.802C621.969 213.054 622.983 213.227 623.844 213.575C624.705 213.922 625.368 214.436 625.833 215.116C626.306 215.797 626.542 216.637 626.542 217.637C626.542 218.505 626.406 219.231 626.135 219.814C625.865 220.398 625.486 220.88 625 221.262C624.521 221.637 623.962 221.946 623.323 222.189L622.125 222.866H617.115L617.094 220.043H620.802C621.267 220.043 621.653 219.96 621.958 219.793C622.264 219.627 622.493 219.391 622.646 219.085C622.806 218.773 622.885 218.401 622.885 217.97C622.885 217.533 622.806 217.158 622.646 216.845C622.486 216.533 622.25 216.293 621.937 216.127C621.632 215.96 621.253 215.877 620.802 215.877H618.49V228.22H614.833V213.054ZM623.135 228.22L619.781 221.512L623.656 221.491L627.052 228.064V228.22H623.135ZM634.042 228.429C633.125 228.429 632.306 228.286 631.583 228.002C630.861 227.71 630.25 227.311 629.75 226.804C629.257 226.297 628.878 225.714 628.615 225.054C628.358 224.394 628.229 223.696 628.229 222.96V222.564C628.229 221.738 628.344 220.974 628.573 220.273C628.802 219.564 629.142 218.946 629.594 218.418C630.045 217.891 630.611 217.481 631.292 217.189C631.972 216.891 632.764 216.741 633.667 216.741C634.465 216.741 635.181 216.87 635.813 217.127C636.444 217.384 636.979 217.752 637.417 218.231C637.861 218.71 638.198 219.29 638.427 219.97C638.663 220.651 638.781 221.415 638.781 222.262V223.689H629.573V221.491H635.354V221.22C635.361 220.845 635.295 220.526 635.156 220.262C635.024 219.998 634.83 219.797 634.573 219.658C634.316 219.519 634.003 219.45 633.635 219.45C633.253 219.45 632.938 219.533 632.688 219.7C632.444 219.866 632.253 220.095 632.115 220.387C631.983 220.672 631.889 221.002 631.833 221.377C631.778 221.752 631.75 222.148 631.75 222.564V222.96C631.75 223.377 631.806 223.755 631.917 224.095C632.035 224.436 632.201 224.727 632.417 224.97C632.639 225.207 632.903 225.391 633.208 225.523C633.521 225.654 633.875 225.72 634.271 225.72C634.75 225.72 635.222 225.63 635.688 225.45C636.153 225.269 636.552 224.97 636.885 224.554L638.479 226.45C638.25 226.776 637.924 227.092 637.5 227.398C637.083 227.703 636.583 227.953 636 228.148C635.417 228.335 634.764 228.429 634.042 228.429ZM646.063 225.387V220.741C646.063 220.422 646.017 220.148 645.927 219.918C645.837 219.689 645.694 219.512 645.5 219.387C645.306 219.255 645.045 219.189 644.719 219.189C644.455 219.189 644.229 219.234 644.042 219.325C643.854 219.415 643.712 219.55 643.615 219.731C643.517 219.911 643.469 220.141 643.469 220.418H639.958C639.958 219.898 640.073 219.415 640.302 218.97C640.538 218.519 640.872 218.127 641.302 217.793C641.74 217.46 642.26 217.203 642.865 217.023C643.476 216.835 644.156 216.741 644.906 216.741C645.802 216.741 646.601 216.891 647.302 217.189C648.01 217.488 648.569 217.936 648.979 218.533C649.389 219.123 649.594 219.866 649.594 220.762V225.377C649.594 226.113 649.635 226.672 649.719 227.054C649.802 227.429 649.92 227.759 650.073 228.043V228.22H646.552C646.385 227.873 646.26 227.45 646.177 226.95C646.101 226.443 646.063 225.922 646.063 225.387ZM646.49 221.335L646.51 223.21H644.958C644.632 223.21 644.354 223.255 644.125 223.345C643.903 223.436 643.722 223.561 643.583 223.72C643.451 223.873 643.354 224.047 643.292 224.241C643.236 224.436 643.208 224.641 643.208 224.856C643.208 225.064 643.257 225.252 643.354 225.418C643.458 225.578 643.597 225.703 643.771 225.793C643.944 225.884 644.139 225.929 644.354 225.929C644.743 225.929 645.073 225.856 645.344 225.71C645.622 225.557 645.833 225.373 645.979 225.158C646.125 224.943 646.198 224.741 646.198 224.554L646.969 225.991C646.83 226.269 646.67 226.55 646.49 226.835C646.316 227.12 646.097 227.384 645.833 227.627C645.576 227.863 645.26 228.057 644.885 228.21C644.51 228.356 644.056 228.429 643.521 228.429C642.826 228.429 642.188 228.286 641.604 228.002C641.028 227.717 640.566 227.321 640.219 226.814C639.872 226.3 639.698 225.71 639.698 225.043C639.698 224.46 639.802 223.939 640.01 223.481C640.226 223.023 640.549 222.634 640.979 222.314C641.41 221.995 641.958 221.752 642.625 221.585C643.292 221.418 644.076 221.335 644.979 221.335H646.49ZM656.302 225.72C656.628 225.72 656.906 225.661 657.135 225.543C657.372 225.418 657.549 225.245 657.667 225.023C657.792 224.793 657.851 224.519 657.844 224.2H661.146C661.153 225.047 660.944 225.79 660.521 226.429C660.104 227.061 659.535 227.554 658.812 227.908C658.097 228.255 657.288 228.429 656.385 228.429C655.503 228.429 654.733 228.286 654.073 228.002C653.413 227.71 652.861 227.307 652.417 226.793C651.979 226.273 651.649 225.665 651.427 224.97C651.212 224.276 651.104 223.523 651.104 222.71V222.47C651.104 221.658 651.212 220.904 651.427 220.21C651.649 219.509 651.979 218.901 652.417 218.387C652.861 217.866 653.41 217.464 654.062 217.179C654.722 216.887 655.49 216.741 656.365 216.741C657.302 216.741 658.128 216.918 658.844 217.273C659.566 217.627 660.132 218.141 660.542 218.814C660.951 219.488 661.153 220.304 661.146 221.262H657.844C657.851 220.922 657.799 220.616 657.687 220.345C657.576 220.075 657.403 219.859 657.167 219.7C656.937 219.533 656.642 219.45 656.281 219.45C655.92 219.45 655.628 219.529 655.406 219.689C655.184 219.849 655.014 220.071 654.896 220.356C654.785 220.634 654.708 220.953 654.667 221.314C654.632 221.675 654.615 222.061 654.615 222.47V222.71C654.615 223.127 654.632 223.519 654.667 223.887C654.708 224.248 654.788 224.568 654.906 224.845C655.024 225.116 655.194 225.332 655.417 225.491C655.639 225.644 655.934 225.72 656.302 225.72ZM668.583 216.95V219.387H661.792V216.95H668.583ZM663.219 214.148H666.729V224.543C666.729 224.842 666.764 225.075 666.833 225.241C666.903 225.401 667.021 225.516 667.188 225.585C667.361 225.648 667.59 225.679 667.875 225.679C668.076 225.679 668.243 225.675 668.375 225.668C668.507 225.654 668.632 225.637 668.75 225.616V228.127C668.451 228.224 668.139 228.297 667.813 228.345C667.486 228.401 667.139 228.429 666.771 228.429C666.021 228.429 665.378 228.311 664.844 228.075C664.316 227.839 663.913 227.467 663.635 226.96C663.358 226.453 663.219 225.793 663.219 224.981V214.148ZM688.125 213.054V228.22H684.479L679.115 218.783V228.22H675.458V213.054H679.115L684.479 222.491V213.054H688.125ZM696.125 225.387V220.741C696.125 220.422 696.08 220.148 695.99 219.918C695.899 219.689 695.757 219.512 695.563 219.387C695.368 219.255 695.108 219.189 694.781 219.189C694.517 219.189 694.292 219.234 694.104 219.325C693.917 219.415 693.774 219.55 693.677 219.731C693.58 219.911 693.531 220.141 693.531 220.418H690.021C690.021 219.898 690.135 219.415 690.365 218.97C690.601 218.519 690.934 218.127 691.365 217.793C691.802 217.46 692.323 217.203 692.927 217.023C693.538 216.835 694.219 216.741 694.969 216.741C695.865 216.741 696.663 216.891 697.365 217.189C698.073 217.488 698.632 217.936 699.042 218.533C699.451 219.123 699.656 219.866 699.656 220.762V225.377C699.656 226.113 699.698 226.672 699.781 227.054C699.865 227.429 699.983 227.759 700.135 228.043V228.22H696.615C696.448 227.873 696.323 227.45 696.24 226.95C696.163 226.443 696.125 225.922 696.125 225.387ZM696.552 221.335L696.573 223.21H695.021C694.694 223.21 694.417 223.255 694.188 223.345C693.965 223.436 693.785 223.561 693.646 223.72C693.514 223.873 693.417 224.047 693.354 224.241C693.299 224.436 693.271 224.641 693.271 224.856C693.271 225.064 693.319 225.252 693.417 225.418C693.521 225.578 693.66 225.703 693.833 225.793C694.007 225.884 694.201 225.929 694.417 225.929C694.806 225.929 695.135 225.856 695.406 225.71C695.684 225.557 695.896 225.373 696.042 225.158C696.188 224.943 696.26 224.741 696.26 224.554L697.031 225.991C696.892 226.269 696.733 226.55 696.552 226.835C696.378 227.12 696.16 227.384 695.896 227.627C695.639 227.863 695.323 228.057 694.948 228.21C694.573 228.356 694.118 228.429 693.583 228.429C692.889 228.429 692.25 228.286 691.667 228.002C691.09 227.717 690.628 227.321 690.281 226.814C689.934 226.3 689.76 225.71 689.76 225.043C689.76 224.46 689.865 223.939 690.073 223.481C690.288 223.023 690.611 222.634 691.042 222.314C691.472 221.995 692.021 221.752 692.688 221.585C693.354 221.418 694.139 221.335 695.042 221.335H696.552ZM707.542 216.95V219.387H700.75V216.95H707.542ZM702.177 214.148H705.687V224.543C705.687 224.842 705.722 225.075 705.792 225.241C705.861 225.401 705.979 225.516 706.146 225.585C706.319 225.648 706.549 225.679 706.833 225.679C707.035 225.679 707.201 225.675 707.333 225.668C707.465 225.654 707.59 225.637 707.708 225.616V228.127C707.41 228.224 707.097 228.297 706.771 228.345C706.444 228.401 706.097 228.429 705.729 228.429C704.979 228.429 704.337 228.311 703.802 228.075C703.274 227.839 702.872 227.467 702.594 226.96C702.316 226.453 702.177 225.793 702.177 224.981V214.148ZM712.646 216.95V228.22H709.125V216.95H712.646ZM708.917 214.043C708.917 213.543 709.097 213.134 709.458 212.814C709.819 212.495 710.288 212.335 710.865 212.335C711.441 212.335 711.91 212.495 712.271 212.814C712.632 213.134 712.813 213.543 712.813 214.043C712.813 214.543 712.632 214.953 712.271 215.273C711.91 215.592 711.441 215.752 710.865 215.752C710.288 215.752 709.819 215.592 709.458 215.273C709.097 214.953 708.917 214.543 708.917 214.043ZM718.875 225.814L721.094 216.95H724.792L721.104 228.22H718.917L718.875 225.814ZM717.563 216.95L719.75 225.814L719.729 228.22H717.531L713.854 216.95H717.563ZM731.146 228.429C730.229 228.429 729.41 228.286 728.688 228.002C727.965 227.71 727.354 227.311 726.854 226.804C726.361 226.297 725.983 225.714 725.719 225.054C725.462 224.394 725.333 223.696 725.333 222.96V222.564C725.333 221.738 725.448 220.974 725.677 220.273C725.906 219.564 726.247 218.946 726.698 218.418C727.149 217.891 727.715 217.481 728.396 217.189C729.076 216.891 729.868 216.741 730.771 216.741C731.569 216.741 732.285 216.87 732.917 217.127C733.549 217.384 734.083 217.752 734.521 218.231C734.965 218.71 735.302 219.29 735.531 219.97C735.767 220.651 735.885 221.415 735.885 222.262V223.689H726.677V221.491H732.458V221.22C732.465 220.845 732.399 220.526 732.26 220.262C732.128 219.998 731.934 219.797 731.677 219.658C731.42 219.519 731.108 219.45 730.74 219.45C730.358 219.45 730.042 219.533 729.792 219.7C729.549 219.866 729.358 220.095 729.219 220.387C729.087 220.672 728.993 221.002 728.938 221.377C728.882 221.752 728.854 222.148 728.854 222.564V222.96C728.854 223.377 728.91 223.755 729.021 224.095C729.139 224.436 729.306 224.727 729.521 224.97C729.743 225.207 730.007 225.391 730.313 225.523C730.625 225.654 730.979 225.72 731.375 225.72C731.854 225.72 732.326 225.63 732.792 225.45C733.257 225.269 733.656 224.97 733.99 224.554L735.583 226.45C735.354 226.776 735.028 227.092 734.604 227.398C734.188 227.703 733.688 227.953 733.104 228.148C732.521 228.335 731.868 228.429 731.146 228.429Z" fill="white"/>
<rect x="804" y="195.975" width="208" height="49.3333" rx="4.66667" fill="#888888" stroke="#888888" stroke-width="4"/>
<path d="M881.5 212.808H887.469C888.635 212.808 889.649 212.982 890.51 213.329C891.372 213.676 892.035 214.19 892.5 214.871C892.972 215.551 893.208 216.392 893.208 217.392C893.208 218.26 893.073 218.985 892.802 219.569C892.531 220.152 892.153 220.635 891.667 221.017C891.188 221.392 890.628 221.701 889.99 221.944L888.792 222.621H883.781L883.76 219.798H887.469C887.934 219.798 888.319 219.715 888.625 219.548C888.931 219.381 889.16 219.145 889.313 218.84C889.472 218.527 889.552 218.156 889.552 217.725C889.552 217.287 889.472 216.912 889.313 216.6C889.153 216.287 888.917 216.048 888.604 215.881C888.299 215.715 887.92 215.631 887.469 215.631H885.156V227.975H881.5V212.808ZM889.802 227.975L886.448 221.267L890.323 221.246L893.719 227.819V227.975H889.802ZM900.708 228.183C899.792 228.183 898.972 228.041 898.25 227.756C897.528 227.465 896.917 227.065 896.417 226.558C895.924 226.051 895.545 225.468 895.281 224.808C895.024 224.149 894.896 223.451 894.896 222.715V222.319C894.896 221.492 895.01 220.728 895.24 220.027C895.469 219.319 895.809 218.701 896.26 218.173C896.712 217.645 897.278 217.235 897.958 216.944C898.639 216.645 899.431 216.496 900.333 216.496C901.132 216.496 901.847 216.624 902.479 216.881C903.111 217.138 903.646 217.506 904.083 217.985C904.528 218.465 904.865 219.044 905.094 219.725C905.33 220.406 905.448 221.169 905.448 222.017V223.444H896.24V221.246H902.021V220.975C902.028 220.6 901.962 220.281 901.823 220.017C901.691 219.753 901.497 219.551 901.24 219.412C900.983 219.274 900.67 219.204 900.302 219.204C899.92 219.204 899.604 219.287 899.354 219.454C899.111 219.621 898.92 219.85 898.781 220.142C898.649 220.426 898.556 220.756 898.5 221.131C898.444 221.506 898.417 221.902 898.417 222.319V222.715C898.417 223.131 898.472 223.51 898.583 223.85C898.701 224.19 898.868 224.482 899.083 224.725C899.306 224.961 899.569 225.145 899.875 225.277C900.187 225.409 900.542 225.475 900.937 225.475C901.417 225.475 901.889 225.385 902.354 225.204C902.819 225.024 903.219 224.725 903.552 224.308L905.146 226.204C904.917 226.531 904.59 226.847 904.167 227.152C903.75 227.458 903.25 227.708 902.667 227.902C902.083 228.09 901.431 228.183 900.708 228.183ZM912.729 225.142V220.496C912.729 220.176 912.684 219.902 912.594 219.673C912.503 219.444 912.361 219.267 912.167 219.142C911.972 219.01 911.712 218.944 911.385 218.944C911.122 218.944 910.896 218.989 910.708 219.079C910.521 219.169 910.378 219.305 910.281 219.485C910.184 219.666 910.135 219.895 910.135 220.173H906.625C906.625 219.652 906.74 219.169 906.969 218.725C907.205 218.274 907.538 217.881 907.969 217.548C908.406 217.215 908.927 216.958 909.531 216.777C910.142 216.59 910.823 216.496 911.573 216.496C912.469 216.496 913.267 216.645 913.969 216.944C914.677 217.242 915.236 217.69 915.646 218.287C916.056 218.878 916.26 219.621 916.26 220.517V225.131C916.26 225.867 916.302 226.426 916.385 226.808C916.469 227.183 916.587 227.513 916.74 227.798V227.975H913.219C913.052 227.628 912.927 227.204 912.844 226.704C912.767 226.197 912.729 225.676 912.729 225.142ZM913.156 221.09L913.177 222.965H911.625C911.299 222.965 911.021 223.01 910.792 223.1C910.569 223.19 910.389 223.315 910.25 223.475C910.118 223.628 910.021 223.801 909.958 223.996C909.903 224.19 909.875 224.395 909.875 224.61C909.875 224.819 909.924 225.006 910.021 225.173C910.125 225.333 910.264 225.458 910.438 225.548C910.611 225.638 910.806 225.683 911.021 225.683C911.41 225.683 911.74 225.61 912.01 225.465C912.288 225.312 912.5 225.128 912.646 224.912C912.792 224.697 912.865 224.496 912.865 224.308L913.635 225.746C913.497 226.024 913.337 226.305 913.156 226.59C912.983 226.874 912.764 227.138 912.5 227.381C912.243 227.617 911.927 227.812 911.552 227.965C911.177 228.11 910.722 228.183 910.188 228.183C909.493 228.183 908.854 228.041 908.271 227.756C907.694 227.472 907.233 227.076 906.885 226.569C906.538 226.055 906.365 225.465 906.365 224.798C906.365 224.215 906.469 223.694 906.677 223.235C906.892 222.777 907.215 222.388 907.646 222.069C908.076 221.749 908.625 221.506 909.292 221.34C909.958 221.173 910.743 221.09 911.646 221.09H913.156ZM922.969 225.475C923.295 225.475 923.573 225.416 923.802 225.298C924.038 225.173 924.215 224.999 924.333 224.777C924.458 224.548 924.517 224.274 924.51 223.954H927.813C927.819 224.801 927.611 225.544 927.188 226.183C926.771 226.815 926.201 227.308 925.479 227.662C924.764 228.01 923.955 228.183 923.052 228.183C922.17 228.183 921.399 228.041 920.74 227.756C920.08 227.465 919.528 227.062 919.083 226.548C918.646 226.027 918.316 225.419 918.094 224.725C917.878 224.031 917.771 223.277 917.771 222.465V222.225C917.771 221.412 917.878 220.659 918.094 219.965C918.316 219.263 918.646 218.656 919.083 218.142C919.528 217.621 920.076 217.218 920.729 216.933C921.389 216.642 922.156 216.496 923.031 216.496C923.969 216.496 924.795 216.673 925.51 217.027C926.233 217.381 926.799 217.895 927.208 218.569C927.618 219.242 927.819 220.058 927.813 221.017H924.51C924.517 220.676 924.465 220.371 924.354 220.1C924.243 219.829 924.069 219.614 923.833 219.454C923.604 219.287 923.309 219.204 922.948 219.204C922.587 219.204 922.295 219.284 922.073 219.444C921.851 219.603 921.681 219.826 921.563 220.11C921.451 220.388 921.375 220.708 921.333 221.069C921.299 221.43 921.281 221.815 921.281 222.225V222.465C921.281 222.881 921.299 223.274 921.333 223.642C921.375 224.003 921.455 224.322 921.573 224.6C921.691 224.871 921.861 225.086 922.083 225.246C922.306 225.399 922.601 225.475 922.969 225.475ZM935.25 216.704V219.142H928.458V216.704H935.25ZM929.885 213.902H933.396V224.298C933.396 224.597 933.431 224.829 933.5 224.996C933.569 225.156 933.688 225.27 933.854 225.34C934.028 225.402 934.257 225.433 934.542 225.433C934.743 225.433 934.91 225.43 935.042 225.423C935.174 225.409 935.299 225.392 935.417 225.371V227.881C935.118 227.978 934.806 228.051 934.479 228.1C934.153 228.156 933.806 228.183 933.438 228.183C932.688 228.183 932.045 228.065 931.51 227.829C930.983 227.593 930.58 227.222 930.302 226.715C930.024 226.208 929.885 225.548 929.885 224.735V213.902Z" fill="white"/>
<rect x="1037" y="196.693" width="208" height="49.3333" rx="4.66667" fill="#888888" stroke="#888888" stroke-width="4"/>
<path d="M1117.94 213.527V228.693H1114.29L1108.93 219.256V228.693H1105.27V213.527H1108.93L1114.29 222.964V213.527H1117.94ZM1119.65 223.172V222.954C1119.65 222.127 1119.76 221.367 1120 220.672C1120.24 219.971 1120.58 219.363 1121.04 218.849C1121.5 218.336 1122.07 217.936 1122.74 217.652C1123.41 217.36 1124.19 217.214 1125.07 217.214C1125.96 217.214 1126.74 217.36 1127.42 217.652C1128.1 217.936 1128.67 218.336 1129.12 218.849C1129.58 219.363 1129.93 219.971 1130.17 220.672C1130.4 221.367 1130.52 222.127 1130.52 222.954V223.172C1130.52 223.992 1130.4 224.752 1130.17 225.454C1129.93 226.148 1129.58 226.756 1129.12 227.277C1128.67 227.79 1128.1 228.19 1127.43 228.474C1126.75 228.759 1125.98 228.902 1125.09 228.902C1124.21 228.902 1123.43 228.759 1122.75 228.474C1122.07 228.19 1121.5 227.79 1121.04 227.277C1120.58 226.756 1120.24 226.148 1120 225.454C1119.76 224.752 1119.65 223.992 1119.65 223.172ZM1123.16 222.954V223.172C1123.16 223.596 1123.19 223.992 1123.25 224.36C1123.31 224.728 1123.42 225.051 1123.56 225.329C1123.71 225.599 1123.91 225.811 1124.16 225.964C1124.41 226.117 1124.72 226.193 1125.09 226.193C1125.46 226.193 1125.77 226.117 1126.01 225.964C1126.26 225.811 1126.46 225.599 1126.6 225.329C1126.75 225.051 1126.85 224.728 1126.92 224.36C1126.98 223.992 1127.01 223.596 1127.01 223.172V222.954C1127.01 222.544 1126.98 222.159 1126.92 221.797C1126.85 221.429 1126.75 221.106 1126.6 220.829C1126.46 220.544 1126.26 220.322 1126.01 220.162C1125.76 220.002 1125.45 219.922 1125.07 219.922C1124.7 219.922 1124.4 220.002 1124.15 220.162C1123.9 220.322 1123.71 220.544 1123.56 220.829C1123.42 221.106 1123.31 221.429 1123.25 221.797C1123.19 222.159 1123.16 222.544 1123.16 222.954ZM1138.56 226.11V212.693H1142.09V228.693H1138.93L1138.56 226.11ZM1131.65 223.193V222.974C1131.65 222.12 1131.74 221.343 1131.93 220.641C1132.11 219.933 1132.39 219.325 1132.76 218.818C1133.13 218.304 1133.59 217.909 1134.14 217.631C1134.68 217.353 1135.32 217.214 1136.03 217.214C1136.67 217.214 1137.23 217.363 1137.71 217.662C1138.19 217.954 1138.6 218.363 1138.94 218.891C1139.28 219.419 1139.56 220.037 1139.77 220.745C1139.99 221.447 1140.15 222.204 1140.26 223.016V223.277C1140.15 224.04 1139.99 224.763 1139.77 225.443C1139.56 226.117 1139.28 226.714 1138.94 227.235C1138.6 227.756 1138.18 228.165 1137.7 228.464C1137.22 228.756 1136.66 228.902 1136.01 228.902C1135.3 228.902 1134.66 228.759 1134.11 228.474C1133.57 228.19 1133.12 227.79 1132.75 227.277C1132.39 226.763 1132.11 226.159 1131.93 225.464C1131.74 224.77 1131.65 224.013 1131.65 223.193ZM1135.16 222.974V223.193C1135.16 223.617 1135.18 224.009 1135.24 224.37C1135.3 224.731 1135.39 225.051 1135.52 225.329C1135.66 225.599 1135.84 225.811 1136.06 225.964C1136.29 226.117 1136.57 226.193 1136.91 226.193C1137.36 226.193 1137.73 226.086 1138.02 225.87C1138.32 225.655 1138.54 225.349 1138.68 224.954C1138.82 224.558 1138.89 224.093 1138.86 223.558V222.735C1138.88 222.277 1138.85 221.874 1138.77 221.527C1138.69 221.172 1138.57 220.877 1138.41 220.641C1138.25 220.405 1138.04 220.228 1137.79 220.11C1137.55 219.985 1137.26 219.922 1136.93 219.922C1136.6 219.922 1136.32 219.999 1136.09 220.152C1135.87 220.304 1135.69 220.52 1135.55 220.797C1135.41 221.068 1135.31 221.391 1135.25 221.766C1135.19 222.134 1135.16 222.537 1135.16 222.974ZM1149.54 228.902C1148.63 228.902 1147.81 228.759 1147.08 228.474C1146.36 228.183 1145.75 227.784 1145.25 227.277C1144.76 226.77 1144.38 226.186 1144.11 225.527C1143.86 224.867 1143.73 224.169 1143.73 223.433V223.037C1143.73 222.211 1143.84 221.447 1144.07 220.745C1144.3 220.037 1144.64 219.419 1145.09 218.891C1145.55 218.363 1146.11 217.954 1146.79 217.662C1147.47 217.363 1148.26 217.214 1149.17 217.214C1149.97 217.214 1150.68 217.343 1151.31 217.599C1151.94 217.856 1152.48 218.224 1152.92 218.704C1153.36 219.183 1153.7 219.763 1153.93 220.443C1154.16 221.124 1154.28 221.888 1154.28 222.735V224.162H1145.07V221.964H1150.85V221.693C1150.86 221.318 1150.8 220.999 1150.66 220.735C1150.52 220.471 1150.33 220.27 1150.07 220.131C1149.82 219.992 1149.5 219.922 1149.14 219.922C1148.75 219.922 1148.44 220.006 1148.19 220.172C1147.94 220.339 1147.75 220.568 1147.61 220.86C1147.48 221.145 1147.39 221.474 1147.33 221.849C1147.28 222.224 1147.25 222.62 1147.25 223.037V223.433C1147.25 223.849 1147.31 224.228 1147.42 224.568C1147.53 224.909 1147.7 225.2 1147.92 225.443C1148.14 225.679 1148.4 225.863 1148.71 225.995C1149.02 226.127 1149.38 226.193 1149.77 226.193C1150.25 226.193 1150.72 226.103 1151.19 225.922C1151.65 225.742 1152.05 225.443 1152.39 225.027L1153.98 226.922C1153.75 227.249 1153.42 227.565 1153 227.87C1152.58 228.176 1152.08 228.426 1151.5 228.62C1150.92 228.808 1150.26 228.902 1149.54 228.902ZM1155.94 227.047C1155.94 226.547 1156.12 226.131 1156.48 225.797C1156.84 225.457 1157.31 225.287 1157.88 225.287C1158.45 225.287 1158.92 225.457 1159.27 225.797C1159.63 226.131 1159.81 226.547 1159.81 227.047C1159.81 227.547 1159.63 227.968 1159.27 228.308C1158.92 228.641 1158.45 228.808 1157.88 228.808C1157.31 228.808 1156.84 228.641 1156.48 228.308C1156.12 227.968 1155.94 227.547 1155.94 227.047ZM1162.43 217.422H1165.95V229.058C1165.95 229.961 1165.77 230.721 1165.43 231.339C1165.08 231.964 1164.58 232.436 1163.94 232.756C1163.29 233.082 1162.52 233.245 1161.62 233.245C1161.33 233.245 1161.05 233.231 1160.8 233.204C1160.55 233.183 1160.26 233.138 1159.96 233.068V230.412C1160.14 230.44 1160.31 230.461 1160.46 230.474C1160.61 230.495 1160.78 230.506 1160.96 230.506C1161.28 230.506 1161.55 230.454 1161.76 230.349C1161.98 230.245 1162.14 230.086 1162.25 229.87C1162.37 229.655 1162.43 229.384 1162.43 229.058V217.422ZM1162.17 214.516C1162.17 214.016 1162.35 213.606 1162.71 213.287C1163.07 212.968 1163.54 212.808 1164.11 212.808C1164.69 212.808 1165.16 212.968 1165.52 213.287C1165.88 213.606 1166.06 214.016 1166.06 214.516C1166.06 215.016 1165.88 215.426 1165.52 215.745C1165.16 216.065 1164.69 216.224 1164.11 216.224C1163.54 216.224 1163.07 216.065 1162.71 215.745C1162.35 215.426 1162.17 215.016 1162.17 214.516ZM1173.84 225.527C1173.84 225.332 1173.78 225.165 1173.65 225.027C1173.52 224.881 1173.3 224.749 1172.98 224.631C1172.66 224.506 1172.21 224.381 1171.64 224.256C1171.09 224.138 1170.57 223.981 1170.08 223.787C1169.6 223.593 1169.18 223.356 1168.82 223.079C1168.46 222.801 1168.18 222.471 1167.97 222.089C1167.77 221.707 1167.67 221.27 1167.67 220.777C1167.67 220.297 1167.77 219.846 1167.97 219.422C1168.18 218.992 1168.48 218.613 1168.87 218.287C1169.28 217.954 1169.77 217.693 1170.34 217.506C1170.92 217.311 1171.58 217.214 1172.31 217.214C1173.33 217.214 1174.2 217.37 1174.94 217.683C1175.67 217.988 1176.24 218.419 1176.64 218.974C1177.04 219.523 1177.24 220.159 1177.24 220.881H1173.73C1173.73 220.596 1173.68 220.353 1173.58 220.152C1173.49 219.95 1173.34 219.797 1173.14 219.693C1172.93 219.582 1172.65 219.527 1172.3 219.527C1172.06 219.527 1171.84 219.572 1171.64 219.662C1171.44 219.752 1171.28 219.877 1171.17 220.037C1171.05 220.197 1170.99 220.384 1170.99 220.599C1170.99 220.752 1171.02 220.891 1171.09 221.016C1171.17 221.134 1171.28 221.245 1171.44 221.349C1171.59 221.447 1171.78 221.537 1172.02 221.62C1172.26 221.697 1172.54 221.766 1172.87 221.829C1173.63 221.968 1174.34 222.165 1175 222.422C1175.66 222.679 1176.19 223.044 1176.6 223.516C1177.02 223.988 1177.23 224.624 1177.23 225.422C1177.23 225.922 1177.11 226.384 1176.89 226.808C1176.66 227.224 1176.33 227.593 1175.9 227.912C1175.47 228.224 1174.95 228.468 1174.34 228.641C1173.74 228.815 1173.06 228.902 1172.3 228.902C1171.23 228.902 1170.32 228.711 1169.57 228.329C1168.83 227.94 1168.27 227.454 1167.89 226.87C1167.51 226.28 1167.32 225.683 1167.32 225.079H1170.59C1170.61 225.426 1170.69 225.711 1170.84 225.933C1171 226.155 1171.22 226.318 1171.48 226.422C1171.74 226.527 1172.05 226.579 1172.4 226.579C1172.72 226.579 1172.98 226.534 1173.19 226.443C1173.4 226.353 1173.57 226.231 1173.68 226.079C1173.79 225.919 1173.84 225.735 1173.84 225.527Z" fill="white"/>
</svg>
