<svg width="1363" height="167" viewBox="0 0 1363 167" fill="none" xmlns="http://www.w3.org/2000/svg">
<rect width="1363" height="167" rx="15" fill="#F0F0F0"/>
<path d="M0 15C0 6.71573 6.71573 0 15 0H37V167H15C6.71573 167 0 160.284 0 152V15Z" fill="#424241"/>
<path d="M100.906 54.9219L93.3945 52.2383V49.0859L103.602 53.375V55.6367L100.906 54.9219ZM93.3945 57.1719L100.918 54.4297L103.602 53.7852V56.0352L93.3945 60.3242V57.1719ZM118.578 54.5117H114.195L114.172 52.0977H117.852C118.5 52.0977 119.031 52.0156 119.445 51.8516C119.859 51.6797 120.168 51.4336 120.371 51.1133C120.582 50.7852 120.688 50.3867 120.688 49.918C120.688 49.3867 120.586 48.957 120.383 48.6289C120.188 48.3008 119.879 48.0625 119.457 47.9141C119.043 47.7656 118.508 47.6914 117.852 47.6914H115.414V62H111.898V44.9375H117.852C118.844 44.9375 119.73 45.0312 120.512 45.2188C121.301 45.4062 121.969 45.6914 122.516 46.0742C123.062 46.457 123.48 46.9414 123.77 47.5273C124.059 48.1055 124.203 48.793 124.203 49.5898C124.203 50.293 124.043 50.9414 123.723 51.5352C123.41 52.1289 122.914 52.6133 122.234 52.9883C121.562 53.3633 120.684 53.5703 119.598 53.6094L118.578 54.5117ZM118.426 62H113.234L114.605 59.2578H118.426C119.043 59.2578 119.547 59.1602 119.938 58.9648C120.328 58.7617 120.617 58.4883 120.805 58.1445C120.992 57.8008 121.086 57.4062 121.086 56.9609C121.086 56.4609 121 56.0273 120.828 55.6602C120.664 55.293 120.398 55.0117 120.031 54.8164C119.664 54.6133 119.18 54.5117 118.578 54.5117H115.191L115.215 52.0977H119.434L120.242 53.0469C121.281 53.0312 122.117 53.2148 122.75 53.5977C123.391 53.9727 123.855 54.4609 124.145 55.0625C124.441 55.6641 124.59 56.3086 124.59 56.9961C124.59 58.0898 124.352 59.0117 123.875 59.7617C123.398 60.5039 122.699 61.0625 121.777 61.4375C120.863 61.8125 119.746 62 118.426 62ZM133.859 59.1406V53.4922C133.859 53.0859 133.793 52.7383 133.66 52.4492C133.527 52.1523 133.32 51.9219 133.039 51.7578C132.766 51.5938 132.41 51.5117 131.973 51.5117C131.598 51.5117 131.273 51.5781 131 51.7109C130.727 51.8359 130.516 52.0195 130.367 52.2617C130.219 52.4961 130.145 52.7734 130.145 53.0938H126.77C126.77 52.5547 126.895 52.043 127.145 51.5586C127.395 51.0742 127.758 50.6484 128.234 50.2812C128.711 49.9062 129.277 49.6133 129.934 49.4023C130.598 49.1914 131.34 49.0859 132.16 49.0859C133.145 49.0859 134.02 49.25 134.785 49.5781C135.551 49.9062 136.152 50.3984 136.59 51.0547C137.035 51.7109 137.258 52.5312 137.258 53.5156V58.9414C137.258 59.6367 137.301 60.207 137.387 60.6523C137.473 61.0898 137.598 61.4727 137.762 61.8008V62H134.352C134.188 61.6562 134.062 61.2266 133.977 60.7109C133.898 60.1875 133.859 59.6641 133.859 59.1406ZM134.305 54.2773L134.328 56.1875H132.441C131.996 56.1875 131.609 56.2383 131.281 56.3398C130.953 56.4414 130.684 56.5859 130.473 56.7734C130.262 56.9531 130.105 57.1641 130.004 57.4062C129.91 57.6484 129.863 57.9141 129.863 58.2031C129.863 58.4922 129.93 58.7539 130.062 58.9883C130.195 59.2148 130.387 59.3945 130.637 59.5273C130.887 59.6523 131.18 59.7148 131.516 59.7148C132.023 59.7148 132.465 59.6133 132.84 59.4102C133.215 59.207 133.504 58.957 133.707 58.6602C133.918 58.3633 134.027 58.082 134.035 57.8164L134.926 59.2461C134.801 59.5664 134.629 59.8984 134.41 60.2422C134.199 60.5859 133.93 60.9102 133.602 61.2148C133.273 61.5117 132.879 61.7578 132.418 61.9531C131.957 62.1406 131.41 62.2344 130.777 62.2344C129.973 62.2344 129.242 62.0742 128.586 61.7539C127.938 61.4258 127.422 60.9766 127.039 60.4062C126.664 59.8281 126.477 59.1719 126.477 58.4375C126.477 57.7734 126.602 57.1836 126.852 56.668C127.102 56.1523 127.469 55.7188 127.953 55.3672C128.445 55.0078 129.059 54.7383 129.793 54.5586C130.527 54.3711 131.379 54.2773 132.348 54.2773H134.305ZM143.164 52.0273V62H139.789V49.3203H142.953L143.164 52.0273ZM142.672 55.2148H141.758C141.758 54.2773 141.879 53.4336 142.121 52.6836C142.363 51.9258 142.703 51.2812 143.141 50.75C143.578 50.2109 144.098 49.8008 144.699 49.5195C145.309 49.2305 145.988 49.0859 146.738 49.0859C147.332 49.0859 147.875 49.1719 148.367 49.3438C148.859 49.5156 149.281 49.7891 149.633 50.1641C149.992 50.5391 150.266 51.0352 150.453 51.6523C150.648 52.2695 150.746 53.0234 150.746 53.9141V62H147.348V53.9023C147.348 53.3398 147.27 52.9023 147.113 52.5898C146.957 52.2773 146.727 52.0586 146.422 51.9336C146.125 51.8008 145.758 51.7344 145.32 51.7344C144.867 51.7344 144.473 51.8242 144.137 52.0039C143.809 52.1836 143.535 52.4336 143.316 52.7539C143.105 53.0664 142.945 53.4336 142.836 53.8555C142.727 54.2773 142.672 54.7305 142.672 55.2148ZM160.801 59.2344V44H164.199V62H161.141L160.801 59.2344ZM152.785 55.8125V55.5664C152.785 54.5977 152.895 53.7188 153.113 52.9297C153.332 52.1328 153.652 51.4492 154.074 50.8789C154.496 50.3086 155.016 49.8672 155.633 49.5547C156.25 49.2422 156.953 49.0859 157.742 49.0859C158.484 49.0859 159.133 49.2422 159.688 49.5547C160.25 49.8672 160.727 50.3125 161.117 50.8906C161.516 51.4609 161.836 52.1367 162.078 52.918C162.32 53.6914 162.496 54.5391 162.605 55.4609V56C162.496 56.8828 162.32 57.7031 162.078 58.4609C161.836 59.2188 161.516 59.8828 161.117 60.4531C160.727 61.0156 160.25 61.4531 159.688 61.7656C159.125 62.0781 158.469 62.2344 157.719 62.2344C156.93 62.2344 156.227 62.0742 155.609 61.7539C155 61.4336 154.484 60.9844 154.062 60.4062C153.648 59.8281 153.332 59.1484 153.113 58.3672C152.895 57.5859 152.785 56.7344 152.785 55.8125ZM156.16 55.5664V55.8125C156.16 56.3359 156.199 56.8242 156.277 57.2773C156.363 57.7305 156.5 58.1328 156.688 58.4844C156.883 58.8281 157.133 59.0977 157.438 59.293C157.75 59.4805 158.129 59.5742 158.574 59.5742C159.152 59.5742 159.629 59.4453 160.004 59.1875C160.379 58.9219 160.664 58.5586 160.859 58.0977C161.062 57.6367 161.18 57.1055 161.211 56.5039V54.9688C161.188 54.4766 161.117 54.0352 161 53.6445C160.891 53.2461 160.727 52.9062 160.508 52.625C160.297 52.3438 160.031 52.125 159.711 51.9688C159.398 51.8125 159.027 51.7344 158.598 51.7344C158.16 51.7344 157.785 51.8359 157.473 52.0391C157.16 52.2344 156.906 52.5039 156.711 52.8477C156.523 53.1914 156.383 53.5977 156.289 54.0664C156.203 54.5273 156.16 55.0273 156.16 55.5664ZM182.445 44.9375H185.949V56.2109C185.949 57.5234 185.668 58.6289 185.105 59.5273C184.551 60.4258 183.781 61.1016 182.797 61.5547C181.82 62.0078 180.695 62.2344 179.422 62.2344C178.148 62.2344 177.016 62.0078 176.023 61.5547C175.039 61.1016 174.266 60.4258 173.703 59.5273C173.148 58.6289 172.871 57.5234 172.871 56.2109V44.9375H176.387V56.2109C176.387 56.9766 176.508 57.6016 176.75 58.0859C176.992 58.5703 177.34 58.9258 177.793 59.1523C178.254 59.3789 178.797 59.4922 179.422 59.4922C180.062 59.4922 180.605 59.3789 181.051 59.1523C181.504 58.9258 181.848 58.5703 182.082 58.0859C182.324 57.6016 182.445 56.9766 182.445 56.2109V44.9375ZM192.008 51.7578V66.875H188.633V49.3203H191.762L192.008 51.7578ZM200.035 55.5195V55.7656C200.035 56.6875 199.926 57.543 199.707 58.332C199.496 59.1211 199.184 59.8086 198.77 60.3945C198.355 60.9727 197.84 61.4258 197.223 61.7539C196.613 62.0742 195.91 62.2344 195.113 62.2344C194.34 62.2344 193.668 62.0781 193.098 61.7656C192.527 61.4531 192.047 61.0156 191.656 60.4531C191.273 59.8828 190.965 59.2227 190.73 58.4727C190.496 57.7227 190.316 56.918 190.191 56.0586V55.4141C190.316 54.4922 190.496 53.6484 190.73 52.8828C190.965 52.1094 191.273 51.4414 191.656 50.8789C192.047 50.3086 192.523 49.8672 193.086 49.5547C193.656 49.2422 194.324 49.0859 195.09 49.0859C195.895 49.0859 196.602 49.2383 197.211 49.543C197.828 49.8477 198.344 50.2852 198.758 50.8555C199.18 51.4258 199.496 52.1055 199.707 52.8945C199.926 53.6836 200.035 54.5586 200.035 55.5195ZM196.648 55.7656V55.5195C196.648 54.9805 196.602 54.4844 196.508 54.0312C196.422 53.5703 196.281 53.168 196.086 52.8242C195.898 52.4805 195.648 52.2148 195.336 52.0273C195.031 51.832 194.66 51.7344 194.223 51.7344C193.762 51.7344 193.367 51.8086 193.039 51.957C192.719 52.1055 192.457 52.3203 192.254 52.6016C192.051 52.8828 191.898 53.2188 191.797 53.6094C191.695 54 191.633 54.4414 191.609 54.9336V56.5625C191.648 57.1406 191.758 57.6602 191.938 58.1211C192.117 58.5742 192.395 58.9336 192.77 59.1992C193.145 59.4648 193.637 59.5977 194.246 59.5977C194.691 59.5977 195.066 59.5 195.371 59.3047C195.676 59.1016 195.922 58.8242 196.109 58.4727C196.305 58.1211 196.441 57.7148 196.52 57.2539C196.605 56.793 196.648 56.2969 196.648 55.7656Z" fill="#888888"/>
<path d="M109.93 86.0078V118H102.217V86.0078H109.93ZM119.554 86.0078V91.9624H92.813V86.0078H119.554ZM132.012 118.439C130.079 118.439 128.35 118.139 126.827 117.539C125.303 116.923 124.014 116.081 122.959 115.012C121.919 113.942 121.121 112.712 120.564 111.32C120.022 109.929 119.751 108.457 119.751 106.904V106.069C119.751 104.326 119.993 102.714 120.477 101.235C120.96 99.7407 121.678 98.437 122.63 97.3237C123.582 96.2104 124.776 95.3462 126.211 94.731C127.647 94.1011 129.317 93.7861 131.221 93.7861C132.906 93.7861 134.415 94.0571 135.748 94.5991C137.081 95.1411 138.208 95.9175 139.131 96.9282C140.069 97.939 140.779 99.1621 141.263 100.598C141.761 102.033 142.01 103.645 142.01 105.432V108.442H122.586V103.806H134.781V103.234C134.795 102.443 134.656 101.77 134.363 101.213C134.085 100.656 133.675 100.231 133.133 99.9385C132.591 99.6455 131.932 99.499 131.155 99.499C130.35 99.499 129.683 99.6748 129.156 100.026C128.643 100.378 128.24 100.861 127.947 101.477C127.669 102.077 127.471 102.773 127.354 103.564C127.237 104.355 127.178 105.19 127.178 106.069V106.904C127.178 107.783 127.295 108.581 127.53 109.299C127.779 110.017 128.13 110.632 128.584 111.145C129.053 111.643 129.61 112.031 130.254 112.309C130.914 112.587 131.661 112.727 132.496 112.727C133.506 112.727 134.502 112.536 135.484 112.155C136.465 111.774 137.308 111.145 138.011 110.266L141.373 114.265C140.889 114.953 140.201 115.62 139.307 116.264C138.428 116.909 137.374 117.436 136.143 117.846C134.913 118.242 133.536 118.439 132.012 118.439ZM155.062 112.727C155.75 112.727 156.336 112.602 156.819 112.353C157.317 112.089 157.691 111.723 157.94 111.254C158.204 110.771 158.328 110.192 158.313 109.519H165.279C165.293 111.306 164.854 112.873 163.96 114.221C163.082 115.554 161.88 116.594 160.357 117.341C158.848 118.073 157.142 118.439 155.237 118.439C153.377 118.439 151.751 118.139 150.359 117.539C148.968 116.923 147.803 116.074 146.866 114.99C145.943 113.891 145.247 112.609 144.778 111.145C144.324 109.68 144.097 108.09 144.097 106.376V105.871C144.097 104.157 144.324 102.568 144.778 101.103C145.247 99.6235 145.943 98.3418 146.866 97.2578C147.803 96.1592 148.96 95.3096 150.337 94.709C151.729 94.0938 153.348 93.7861 155.193 93.7861C157.171 93.7861 158.914 94.1597 160.423 94.9067C161.946 95.6538 163.14 96.7378 164.004 98.1587C164.869 99.5796 165.293 101.301 165.279 103.322H158.313C158.328 102.604 158.218 101.96 157.984 101.389C157.75 100.817 157.383 100.363 156.885 100.026C156.402 99.6748 155.779 99.499 155.018 99.499C154.256 99.499 153.641 99.6675 153.172 100.004C152.703 100.341 152.344 100.81 152.095 101.411C151.861 101.997 151.7 102.67 151.612 103.432C151.539 104.194 151.502 105.007 151.502 105.871V106.376C151.502 107.255 151.539 108.083 151.612 108.859C151.7 109.621 151.868 110.295 152.117 110.881C152.366 111.452 152.725 111.906 153.194 112.243C153.663 112.565 154.285 112.727 155.062 112.727ZM175.694 84.25V118H168.289V84.25H175.694ZM174.815 105.3L173.079 105.344C173.079 103.674 173.284 102.136 173.694 100.729C174.104 99.3232 174.69 98.1001 175.452 97.0601C176.214 96.02 177.129 95.2144 178.199 94.6431C179.268 94.0718 180.455 93.7861 181.758 93.7861C182.93 93.7861 184 93.9546 184.966 94.2915C185.948 94.6284 186.79 95.1704 187.493 95.9175C188.211 96.6646 188.76 97.6387 189.141 98.8398C189.537 100.041 189.734 101.506 189.734 103.234V118H182.286V103.19C182.286 102.224 182.146 101.477 181.868 100.949C181.604 100.407 181.224 100.034 180.726 99.8286C180.228 99.6089 179.62 99.499 178.902 99.499C178.038 99.499 177.334 99.6455 176.792 99.9385C176.25 100.231 175.833 100.642 175.54 101.169C175.262 101.682 175.071 102.29 174.969 102.993C174.866 103.696 174.815 104.465 174.815 105.3ZM221.88 109.497C221.88 108.999 221.807 108.552 221.661 108.156C221.514 107.746 221.243 107.365 220.848 107.014C220.452 106.662 219.881 106.311 219.134 105.959C218.401 105.593 217.435 105.212 216.233 104.816C214.827 104.348 213.472 103.82 212.168 103.234C210.865 102.634 209.7 101.938 208.675 101.147C207.649 100.341 206.836 99.4038 206.236 98.3345C205.635 97.2505 205.335 95.9907 205.335 94.5552C205.335 93.1782 205.643 91.9404 206.258 90.8418C206.873 89.7285 207.73 88.7837 208.829 88.0073C209.942 87.2163 211.246 86.6157 212.74 86.2056C214.234 85.7808 215.867 85.5684 217.64 85.5684C219.983 85.5684 222.049 85.9785 223.836 86.7988C225.638 87.6045 227.044 88.7544 228.055 90.2485C229.08 91.728 229.593 93.4785 229.593 95.5H221.924C221.924 94.6943 221.756 93.9839 221.419 93.3687C221.097 92.7534 220.606 92.27 219.947 91.9185C219.288 91.5669 218.46 91.3911 217.464 91.3911C216.497 91.3911 215.684 91.5376 215.025 91.8306C214.366 92.1235 213.868 92.519 213.531 93.0171C213.194 93.5005 213.025 94.0352 213.025 94.6211C213.025 95.1045 213.157 95.5439 213.421 95.9395C213.699 96.3203 214.087 96.6792 214.585 97.0161C215.098 97.353 215.713 97.6753 216.431 97.9829C217.164 98.2905 217.984 98.5908 218.892 98.8838C220.591 99.4258 222.1 100.034 223.418 100.708C224.751 101.367 225.872 102.121 226.78 102.971C227.703 103.806 228.399 104.758 228.868 105.827C229.351 106.896 229.593 108.105 229.593 109.453C229.593 110.888 229.314 112.163 228.758 113.276C228.201 114.389 227.403 115.334 226.363 116.11C225.323 116.872 224.078 117.451 222.627 117.846C221.177 118.242 219.559 118.439 217.771 118.439C216.131 118.439 214.512 118.234 212.916 117.824C211.333 117.399 209.898 116.755 208.609 115.891C207.32 115.012 206.287 113.891 205.511 112.529C204.749 111.152 204.368 109.519 204.368 107.629H212.103C212.103 108.566 212.227 109.357 212.476 110.002C212.725 110.646 213.091 111.167 213.575 111.562C214.058 111.943 214.651 112.221 215.354 112.397C216.058 112.558 216.863 112.639 217.771 112.639C218.753 112.639 219.544 112.5 220.145 112.221C220.745 111.928 221.185 111.547 221.463 111.079C221.741 110.595 221.88 110.068 221.88 109.497ZM245.743 94.2256V99.3672H231.417V94.2256H245.743ZM234.427 88.3149H241.832V110.244C241.832 110.874 241.905 111.364 242.051 111.716C242.198 112.053 242.447 112.294 242.798 112.441C243.165 112.573 243.648 112.639 244.249 112.639C244.673 112.639 245.025 112.631 245.303 112.617C245.582 112.587 245.845 112.551 246.094 112.507V117.802C245.464 118.007 244.805 118.161 244.117 118.264C243.428 118.381 242.696 118.439 241.919 118.439C240.337 118.439 238.982 118.19 237.854 117.692C236.741 117.194 235.892 116.411 235.306 115.341C234.72 114.272 234.427 112.88 234.427 111.167V88.3149ZM261.036 112.023V102.224C261.036 101.55 260.94 100.971 260.75 100.488C260.56 100.004 260.259 99.6309 259.849 99.3672C259.439 99.0889 258.89 98.9497 258.201 98.9497C257.645 98.9497 257.168 99.0449 256.773 99.2354C256.377 99.4258 256.077 99.7114 255.872 100.092C255.667 100.473 255.564 100.957 255.564 101.542H248.16C248.16 100.444 248.401 99.4258 248.885 98.4883C249.383 97.5361 250.086 96.7085 250.994 96.0054C251.917 95.3022 253.016 94.7603 254.29 94.3794C255.579 93.9839 257.015 93.7861 258.597 93.7861C260.486 93.7861 262.171 94.1011 263.65 94.731C265.145 95.3608 266.324 96.3057 267.188 97.5654C268.052 98.8105 268.484 100.378 268.484 102.268V112.001C268.484 113.554 268.572 114.733 268.748 115.539C268.924 116.33 269.173 117.026 269.495 117.626V118H262.068C261.717 117.268 261.453 116.374 261.277 115.319C261.116 114.25 261.036 113.151 261.036 112.023ZM261.937 103.476L261.98 107.431H258.707C258.018 107.431 257.432 107.526 256.949 107.717C256.48 107.907 256.099 108.171 255.806 108.508C255.528 108.83 255.323 109.196 255.191 109.606C255.074 110.017 255.015 110.449 255.015 110.903C255.015 111.342 255.118 111.738 255.323 112.089C255.542 112.426 255.835 112.69 256.202 112.88C256.568 113.071 256.978 113.166 257.432 113.166C258.252 113.166 258.948 113.012 259.52 112.705C260.105 112.382 260.552 111.994 260.86 111.54C261.167 111.086 261.321 110.661 261.321 110.266L262.947 113.298C262.654 113.884 262.317 114.477 261.937 115.078C261.57 115.678 261.109 116.235 260.552 116.748C260.01 117.246 259.344 117.656 258.553 117.978C257.762 118.286 256.802 118.439 255.674 118.439C254.209 118.439 252.862 118.139 251.631 117.539C250.416 116.938 249.441 116.103 248.709 115.034C247.977 113.95 247.61 112.705 247.61 111.298C247.61 110.068 247.83 108.969 248.27 108.002C248.724 107.036 249.405 106.215 250.313 105.542C251.221 104.868 252.378 104.355 253.785 104.003C255.191 103.652 256.846 103.476 258.75 103.476H261.937ZM282.635 112.727C283.323 112.727 283.909 112.602 284.393 112.353C284.891 112.089 285.264 111.723 285.513 111.254C285.777 110.771 285.901 110.192 285.887 109.519H292.852C292.867 111.306 292.427 112.873 291.534 114.221C290.655 115.554 289.454 116.594 287.93 117.341C286.421 118.073 284.715 118.439 282.811 118.439C280.95 118.439 279.324 118.139 277.933 117.539C276.541 116.923 275.376 116.074 274.439 114.99C273.516 113.891 272.82 112.609 272.352 111.145C271.897 109.68 271.67 108.09 271.67 106.376V105.871C271.67 104.157 271.897 102.568 272.352 101.103C272.82 99.6235 273.516 98.3418 274.439 97.2578C275.376 96.1592 276.534 95.3096 277.911 94.709C279.302 94.0938 280.921 93.7861 282.767 93.7861C284.744 93.7861 286.487 94.1597 287.996 94.9067C289.52 95.6538 290.713 96.7378 291.578 98.1587C292.442 99.5796 292.867 101.301 292.852 103.322H285.887C285.901 102.604 285.792 101.96 285.557 101.389C285.323 100.817 284.957 100.363 284.458 100.026C283.975 99.6748 283.353 99.499 282.591 99.499C281.829 99.499 281.214 99.6675 280.745 100.004C280.276 100.341 279.917 100.81 279.668 101.411C279.434 101.997 279.273 102.67 279.185 103.432C279.112 104.194 279.075 105.007 279.075 105.871V106.376C279.075 107.255 279.112 108.083 279.185 108.859C279.273 109.621 279.441 110.295 279.69 110.881C279.939 111.452 280.298 111.906 280.767 112.243C281.236 112.565 281.858 112.727 282.635 112.727ZM303.487 84.228V118H296.082V84.228H303.487ZM318.692 94.2256L308.365 106.333L302.959 111.738L299.729 107.036L304.234 101.169L309.815 94.2256H318.692ZM310.76 118L304.41 107.167L309.881 103.278L319.241 118H310.76Z" fill="#424241"/>
<path d="M1363 15C1363 6.71573 1356.28 0 1348 0H1134V167H1348C1356.28 167 1363 160.284 1363 152V15Z" fill="#FE9738"/>
<path fill-rule="evenodd" clip-rule="evenodd" d="M1218.5 55C1218.37 55 1218.24 55.0527 1218.15 55.1464C1218.05 55.2402 1218 55.3674 1218 55.5V111.5C1218 111.633 1218.05 111.76 1218.15 111.854C1218.24 111.947 1218.37 112 1218.5 112H1278C1278.13 112 1278.26 111.947 1278.35 111.854C1278.45 111.76 1278.5 111.633 1278.5 111.5V66C1278.5 65.8674 1278.45 65.7402 1278.35 65.6464C1278.26 65.5527 1278.13 65.5 1278 65.5H1248.25C1247.36 65.5 1246.52 65.1045 1245.95 64.4206L1238.09 55H1218.5ZM1213.9 50.9038C1215.12 49.6848 1216.78 49 1218.5 49H1239.5C1240.39 49 1241.23 49.3955 1241.8 50.0794L1249.66 59.5H1278C1279.72 59.5 1281.38 60.1848 1282.6 61.4038C1283.82 62.6228 1284.5 64.2761 1284.5 66V111.5C1284.5 113.224 1283.82 114.877 1282.6 116.096C1281.38 117.315 1279.72 118 1278 118H1218.5C1216.78 118 1215.12 117.315 1213.9 116.096C1212.68 114.877 1212 113.224 1212 111.5V55.5C1212 53.7761 1212.68 52.1228 1213.9 50.9038Z" fill="white"/>
<path fill-rule="evenodd" clip-rule="evenodd" d="M1243.72 77.5251C1245.09 78.892 1245.09 81.108 1243.72 82.4749L1237.45 88.75L1243.72 95.0251C1245.09 96.392 1245.09 98.608 1243.72 99.9749C1242.36 101.342 1240.14 101.342 1238.78 99.9749L1230.03 91.2249C1228.66 89.858 1228.66 87.642 1230.03 86.2751L1238.78 77.5251C1240.14 76.1583 1242.36 76.1583 1243.72 77.5251Z" fill="white"/>
<path fill-rule="evenodd" clip-rule="evenodd" d="M1252.03 99.9749C1250.66 98.608 1250.66 96.392 1252.03 95.0251L1258.3 88.75L1252.03 82.4749C1250.66 81.108 1250.66 78.892 1252.03 77.5251C1253.39 76.1583 1255.61 76.1583 1256.97 77.5251L1265.72 86.2751C1267.09 87.642 1267.09 89.858 1265.72 91.2249L1256.97 99.9749C1255.61 101.342 1253.39 101.342 1252.03 99.9749Z" fill="white"/>
</svg>
